<svg width="51" height="51" viewBox="0 0 51 51" fill="none" xmlns="http://www.w3.org/2000/svg">
<g clip-path="url(#clip0_1_508)">
<path d="M49.2412 20.5801L31.7412 8.08008C31.2968 7.74674 30.7968 7.58008 30.2412 7.58008C29.6857 7.58008 29.1857 7.74674 28.7412 8.08008L17.9079 15.9134C18.5746 16.3579 19.1301 16.969 19.5746 17.7467L30.2412 10.0801L47.7412 22.5801H42.7412V45.0801H17.9079L17.7412 47.5801H42.7412C43.4079 47.5801 43.9912 47.3301 44.4912 46.8301C44.9912 46.3301 45.2412 45.7467 45.2412 45.0801V25.0801H47.7412C48.2968 25.0801 48.7968 24.9134 49.2412 24.5801C49.6857 24.2467 49.9912 23.8301 50.1579 23.3301C50.3246 22.8301 50.3246 22.3301 50.1579 21.8301C49.9912 21.3301 49.6857 20.9134 49.2412 20.5801ZM20.2412 33.4134L17.7412 19.5801C17.6301 19.0245 17.3246 18.5523 16.8246 18.1634C16.3246 17.7745 15.7968 17.5801 15.2412 17.5801H5.24124C4.68569 17.5801 4.15791 17.7745 3.65791 18.1634C3.15791 18.5523 2.85235 19.0245 2.74124 19.5801L0.241241 33.4134C0.130129 34.1912 0.324574 34.8579 0.824574 35.4134C1.32457 35.969 1.96346 36.2467 2.74124 36.2467H4.40791L5.24124 47.7467C5.35235 48.4134 5.63013 48.969 6.07457 49.4134C6.51902 49.8579 7.07457 50.0801 7.74124 50.0801H12.7412C13.4079 50.0801 13.9635 49.8579 14.4079 49.4134C14.8524 48.969 15.1301 48.4134 15.2412 47.7467L16.0746 36.2467H17.7412C18.519 36.2467 19.1579 35.969 19.6579 35.4134C20.1579 34.8579 20.3524 34.1912 20.2412 33.4134ZM13.9079 33.7467L12.7412 47.5801H7.74124L6.57457 33.7467H2.74124L5.24124 20.0801H8.90791V27.7467C8.90791 28.0801 9.0468 28.3579 9.32457 28.5801C9.60235 28.8023 9.90791 28.9134 10.2412 28.9134C10.5746 28.9134 10.8524 28.8023 11.0746 28.5801C11.2968 28.3579 11.4079 28.0801 11.4079 27.7467V20.0801H15.2412L17.7412 33.7467H13.9079ZM10.2412 0.0800781C8.13013 0.0800781 6.35235 0.802299 4.90791 2.24674C3.46346 3.69119 2.74124 5.46897 2.74124 7.58008C2.74124 9.69119 3.46346 11.469 4.90791 12.9134C6.35235 14.3579 8.13013 15.0801 10.2412 15.0801C12.3524 15.0801 14.1301 14.3579 15.5746 12.9134C17.019 11.469 17.7412 9.69119 17.7412 7.58008C17.7412 5.46897 17.019 3.69119 15.5746 2.24674C14.1301 0.802299 12.3524 0.0800781 10.2412 0.0800781ZM10.2412 12.5801C8.90791 12.5801 7.74124 12.0801 6.74124 11.0801C5.74124 10.0801 5.24124 8.91341 5.24124 7.58008C5.24124 6.24674 5.74124 5.08008 6.74124 4.08008C7.74124 3.08008 8.90791 2.58008 10.2412 2.58008C11.5746 2.58008 12.7412 3.08008 13.7412 4.08008C14.7412 5.08008 15.2412 6.24674 15.2412 7.58008C15.2412 8.91341 14.7412 10.0801 13.7412 11.0801C12.7412 12.0801 11.5746 12.5801 10.2412 12.5801Z" fill="#1A1A1A"/>
</g>
<defs>
<clipPath id="clip0_1_508">
<rect width="50.02" height="50" fill="white" transform="matrix(1 0 0 -1 0.230469 50.0801)"/>
</clipPath>
</defs>
</svg>
