<svg width="61" height="61" viewBox="0 0 61 61" fill="none" xmlns="http://www.w3.org/2000/svg">
<path d="M18.79 44.08C18.79 43.5466 18.99 43.08 19.39 42.68C19.79 42.28 20.19 42.08 20.59 42.08H41.39C41.79 42.08 42.19 42.28 42.59 42.68C42.99 43.08 43.19 43.5466 43.19 44.08C43.19 44.6133 42.99 45.0466 42.59 45.38C42.19 45.7133 41.79 45.88 41.39 45.88H20.59C20.19 45.88 19.79 45.7133 19.39 45.38C18.99 45.0466 18.79 44.6133 18.79 44.08ZM38.99 5.47995C36.7233 3.61329 34.0566 2.67995 30.99 2.67995C27.9233 2.67995 25.2566 3.61329 22.99 5.47995L7.98998 17.08C6.38998 18.4133 5.12331 19.9466 4.18998 21.68C3.25664 23.4133 2.78998 25.28 2.78998 27.28V46.08C2.78998 48.3466 3.38998 50.48 4.58998 52.48C5.78998 54.48 7.38998 56.08 9.38998 57.28C11.39 58.48 13.59 59.08 15.99 59.08H45.99C48.39 59.08 50.59 58.48 52.59 57.28C54.59 56.08 56.19 54.48 57.39 52.48C58.59 50.48 59.19 48.3466 59.19 46.08V27.28C59.19 25.28 58.7233 23.4133 57.79 21.68C56.8566 19.9466 55.59 18.4133 53.99 17.08L38.99 5.47995ZM25.19 8.47995C26.9233 7.14662 28.8566 6.47995 30.99 6.47995C33.1233 6.47995 35.0566 7.14662 36.79 8.47995L51.79 20.08C52.8566 21.0133 53.7233 22.1133 54.39 23.38C55.0566 24.6466 55.39 25.9466 55.39 27.28V46.08C55.39 48.6133 54.4566 50.78 52.59 52.58C50.7233 54.38 48.5233 55.28 45.99 55.28H15.99C13.4566 55.28 11.2566 54.38 9.38998 52.58C7.52331 50.78 6.58998 48.6133 6.58998 46.08V27.28C6.58998 25.9466 6.92331 24.6466 7.58998 23.38C8.25664 22.1133 9.12331 21.0133 10.19 20.08L25.19 8.47995Z" fill="#1A1A1A"/>
</svg>
