<svg width="16" height="16" viewBox="0 0 16 16" fill="none" xmlns="http://www.w3.org/2000/svg">
<path d="M6.7501 3.5957C8.5958 3.5957 10.1192 5.11914 10.1192 6.96484C10.1192 8.83984 8.5958 10.334 6.7501 10.334C4.8751 10.334 3.38096 8.83984 3.38096 6.96484C3.38096 5.11914 4.8751 3.5957 6.7501 3.5957ZM6.7501 9.16211C7.95127 9.16211 8.91806 8.19531 8.91806 6.96484C8.91806 5.76367 7.95127 4.79688 6.7501 4.79688C5.51963 4.79688 4.55283 5.76367 4.55283 6.96484C4.55283 8.19531 5.54892 9.16211 6.7501 9.16211ZM11.0274 3.47852C11.0274 3.91797 10.6759 4.26953 10.2364 4.26953C9.79697 4.26953 9.44541 3.91797 9.44541 3.47852C9.44541 3.03906 9.79697 2.6875 10.2364 2.6875C10.6759 2.6875 11.0274 3.03906 11.0274 3.47852ZM13.254 4.26953C13.3126 5.35352 13.3126 8.60547 13.254 9.68945C13.1954 10.7441 12.961 11.6523 12.1993 12.4434C11.4376 13.2051 10.5001 13.4395 9.44541 13.498C8.36142 13.5566 5.10947 13.5566 4.02549 13.498C2.9708 13.4395 2.0626 13.2051 1.27158 12.4434C0.509861 11.6523 0.275486 10.7441 0.216893 9.68945C0.158299 8.60547 0.158299 5.35352 0.216893 4.26953C0.275486 3.21484 0.509861 2.27734 1.27158 1.51562C2.0626 0.753906 2.9708 0.519531 4.02549 0.460938C5.10947 0.402344 8.36142 0.402344 9.44541 0.460938C10.5001 0.519531 11.4376 0.753906 12.1993 1.51562C12.961 2.27734 13.1954 3.21484 13.254 4.26953ZM11.8478 10.832C12.1993 9.98242 12.1114 7.93164 12.1114 6.96484C12.1114 6.02734 12.1993 3.97656 11.8478 3.09766C11.6134 2.54102 11.1739 2.07227 10.6173 1.86719C9.73838 1.51562 7.6876 1.60352 6.7501 1.60352C5.7833 1.60352 3.73252 1.51562 2.88291 1.86719C2.29697 2.10156 1.85752 2.54102 1.62314 3.09766C1.27158 3.97656 1.35947 6.02734 1.35947 6.96484C1.35947 7.93164 1.27158 9.98242 1.62314 10.832C1.85752 11.418 2.29697 11.8574 2.88291 12.0918C3.73252 12.4434 5.7833 12.3555 6.7501 12.3555C7.6876 12.3555 9.73838 12.4434 10.6173 12.0918C11.1739 11.8574 11.6427 11.418 11.8478 10.832Z" fill="#1A1A1A"/>
<a href="https://www.figma.com/design/0zvQOIkcUwDFJp7ufXK3kh?node-id=2-3109">
<rect fill="black" fill-opacity="0" x="-0.282375" y="-1.125" width="13.125" height="17.25"/>
</a>
</svg>
