<svg width="16" height="16" viewBox="0 0 16 16" fill="none" xmlns="http://www.w3.org/2000/svg">
<path d="M3.29794 13.5898H0.573332V4.83008H3.29794V13.5898ZM1.92099 3.6582C1.07138 3.6582 0.368254 2.92578 0.368254 2.04688C0.368254 1.19727 1.07138 0.494141 1.92099 0.494141C2.79989 0.494141 3.50302 1.19727 3.50302 2.04688C3.50302 2.92578 2.79989 3.6582 1.92099 3.6582ZM13.464 13.5898H10.7686V9.3418C10.7686 8.31641 10.7393 7.02734 9.3331 7.02734C7.92685 7.02734 7.72177 8.11133 7.72177 9.25391V13.5898H4.99716V4.83008H7.60458V6.03125H7.63388C8.01474 5.35742 8.89364 4.625 10.212 4.625C12.9659 4.625 13.4933 6.44141 13.4933 8.78516V13.5898H13.464Z" fill="#1A1A1A"/>
<a href="https://www.figma.com/design/0zvQOIkcUwDFJp7ufXK3kh?node-id=2-3109">
<rect fill="black" fill-opacity="0" x="0.178312" y="-1.125" width="13.125" height="17.25"/>
</a>
</svg>
