<svg width="20" height="21" viewBox="0 0 20 21" fill="none" xmlns="http://www.w3.org/2000/svg">
<g clip-path="url(#clip0_2018_9)">
<path d="M16.133 3.1034C15.2886 2.3034 14.3441 1.68118 13.2997 1.23673C12.2552 0.79229 11.1552 0.570067 9.99967 0.570067C8.84412 0.570067 7.73301 0.79229 6.66634 1.23673C5.59967 1.68118 4.66634 2.3034 3.86634 3.1034C3.06634 3.9034 2.44412 4.83673 1.99967 5.9034C1.55523 6.97007 1.33301 8.08118 1.33301 9.23673C1.33301 10.3923 1.55523 11.4923 1.99967 12.5367C2.44412 13.5812 3.06634 14.5256 3.86634 15.3701L8.46634 19.9701C8.86634 20.3701 9.36634 20.5701 9.96634 20.5701C10.5663 20.5701 11.0886 20.3701 11.533 19.9701L16.133 15.3701C16.933 14.5256 17.5552 13.5812 17.9997 12.5367C18.4441 11.4923 18.6663 10.3923 18.6663 9.23673C18.6663 8.08118 18.4441 6.97007 17.9997 5.9034C17.5552 4.83673 16.933 3.9034 16.133 3.1034ZM15.2663 14.5034L10.6663 19.1034C10.4886 19.2812 10.2663 19.3701 9.99967 19.3701C9.73301 19.3701 9.48856 19.2812 9.26634 19.1034L4.66634 14.5034C3.95523 13.7923 3.4219 12.9812 3.06634 12.0701C2.71079 11.159 2.53301 10.2034 2.53301 9.2034C2.53301 8.2034 2.71079 7.24785 3.06634 6.33673C3.4219 5.42562 3.95523 4.62562 4.66634 3.93673C5.37745 3.24785 6.18856 2.71451 7.09967 2.33673C8.01079 1.95896 8.96634 1.77007 9.96634 1.77007C10.9663 1.77007 11.9219 1.95896 12.833 2.33673C13.7441 2.71451 14.5552 3.23673 15.2663 3.9034C16.2441 4.88118 16.8997 6.01451 17.233 7.3034C17.5663 8.59229 17.5663 9.88118 17.233 11.1701C16.8997 12.459 16.2441 13.5701 15.2663 14.5034ZM9.99967 6.1034C9.15523 6.1034 8.4219 6.41451 7.79967 7.03673C7.17745 7.65896 6.86634 8.39229 6.86634 9.23673C6.86634 10.0812 7.17745 10.8034 7.79967 11.4034C8.4219 12.0034 9.15523 12.3034 9.99967 12.3034C10.8441 12.3034 11.5663 12.0034 12.1663 11.4034C12.7663 10.8034 13.0663 10.0812 13.0663 9.23673C13.0663 8.39229 12.7663 7.65896 12.1663 7.03673C11.5663 6.41451 10.8441 6.1034 9.99967 6.1034ZM9.99967 11.1701C9.46634 11.1701 9.01079 10.9812 8.63301 10.6034C8.25523 10.2256 8.06634 9.77007 8.06634 9.23673C8.06634 8.7034 8.25523 8.24785 8.63301 7.87007C9.01079 7.49229 9.46634 7.3034 9.99967 7.3034C10.533 7.3034 10.9886 7.49229 11.3663 7.87007C11.7441 8.24785 11.933 8.7034 11.933 9.23673C11.933 9.77007 11.7441 10.2256 11.3663 10.6034C10.9886 10.9812 10.533 11.1701 9.99967 11.1701Z" fill="#1A1A1A"/>
</g>
<defs>
<clipPath id="clip0_2018_9">
<rect width="20" height="20" fill="white" transform="matrix(1 0 0 -1 0 20.5701)"/>
</clipPath>
</defs>
</svg>
