<svg width="61" height="61" viewBox="0 0 61 61" fill="none" xmlns="http://www.w3.org/2000/svg">
<path d="M30.32 57.28C29.52 57.28 28.7867 57.08 28.12 56.68L19.32 51.48C15.5867 49.3467 12.5533 46.4134 10.22 42.68C7.88667 38.9467 6.52 34.9467 6.12 30.68L4.92 15.68C4.78667 14.6134 4.98667 13.6467 5.52 12.78C6.05334 11.9134 6.78667 11.3467 7.72 11.08C9.18667 10.68 10.52 10.08 11.72 9.28003C13.1867 8.34669 14.52 7.14669 15.72 5.68003C16.52 4.61336 17.6533 4.08003 19.12 4.08003H41.52C42.9867 4.08003 44.12 4.61336 44.92 5.68003C46.12 7.14669 47.4533 8.34669 48.92 9.28003C50.12 10.08 51.4533 10.68 52.92 11.08C53.8533 11.3467 54.5867 11.9134 55.12 12.78C55.6533 13.6467 55.92 14.5467 55.92 15.48L54.52 30.48C54.2533 34.88 52.9533 38.9134 50.62 42.58C48.2867 46.2467 45.2533 49.2134 41.52 51.48L32.72 56.68C31.92 57.08 31.12 57.28 30.32 57.28ZM19.12 7.68003C18.8533 7.68003 18.6533 7.7467 18.52 7.88003C17.1867 9.61336 15.6533 11.1467 13.92 12.48C12.4533 13.4134 10.8533 14.08 9.12001 14.48C8.72001 14.6134 8.52 14.88 8.52 15.28L9.92001 30.28C10.1867 34.0134 11.32 37.48 13.32 40.68C15.32 43.88 17.92 46.4134 21.12 48.28L29.92 53.48C30.1867 53.6134 30.4533 53.6134 30.72 53.48L39.52 48.28C42.72 46.4134 45.32 43.9134 47.32 40.78C49.32 37.6467 50.4533 34.1467 50.72 30.28L52.12 15.28C52.12 15.0134 51.92 14.8134 51.52 14.68C49.7867 14.28 48.1867 13.5467 46.72 12.48C44.9867 11.28 43.4533 9.81336 42.12 8.08003C41.9867 7.94669 41.7867 7.88003 41.52 7.88003L19.12 7.68003ZM28.52 36.48C27.9867 36.48 27.52 36.28 27.12 35.88L22.12 30.88C21.8533 30.6134 21.7533 30.2467 21.82 29.78C21.8867 29.3134 22.0867 28.9134 22.42 28.58C22.7533 28.2467 23.12 28.0467 23.52 27.98C23.92 27.9134 24.32 28.0134 24.72 28.28L28.52 32.08L37.12 23.28C37.52 23.1467 37.92 23.08 38.32 23.08C38.72 23.08 39.0867 23.2467 39.42 23.58C39.7533 23.9134 39.9533 24.28 40.02 24.68C40.0867 25.08 39.9867 25.48 39.72 25.88L29.72 35.88C29.4533 36.28 29.0533 36.48 28.52 36.48Z" fill="#1A1A1A"/>
</svg>
