<svg width="16" height="13" viewBox="0 0 16 13" fill="none" xmlns="http://www.w3.org/2000/svg">
<path d="M13.7619 3.32812C13.7619 3.47461 13.7619 3.5918 13.7619 3.73828C13.7619 7.81055 10.6857 12.4688 5.03139 12.4688C3.27358 12.4688 1.66225 11.9707 0.314594 11.0918C0.548969 11.1211 0.783344 11.1504 1.04702 11.1504C2.48256 11.1504 3.80092 10.6523 4.85561 9.83203C3.50795 9.80273 2.36538 8.92383 1.98452 7.69336C2.18959 7.72266 2.36538 7.75195 2.57045 7.75195C2.83413 7.75195 3.12709 7.69336 3.36147 7.63477C1.95522 7.3418 0.900531 6.11133 0.900531 4.61719V4.58789C1.31069 4.82227 1.80873 4.93945 2.30678 4.96875C1.45717 4.41211 0.929828 3.47461 0.929828 2.41992C0.929828 1.83398 1.07631 1.30664 1.33998 0.867188C2.86342 2.71289 5.14858 3.94336 7.69741 4.08984C7.63881 3.85547 7.60952 3.62109 7.60952 3.38672C7.60952 1.6875 8.98647 0.310547 10.6857 0.310547C11.5646 0.310547 12.3556 0.662109 12.9415 1.27734C13.6154 1.13086 14.2892 0.867188 14.8751 0.515625C14.6408 1.24805 14.172 1.83398 13.5275 2.21484C14.1427 2.15625 14.758 1.98047 15.2853 1.74609C14.8751 2.36133 14.3478 2.88867 13.7619 3.32812Z" fill="white"/>
<a href="https://www.figma.com/design/0zvQOIkcUwDFJp7ufXK3kh?node-id=2-2">
<rect fill="black" fill-opacity="0" x="-0.744" y="-1.125" width="15" height="17.25"/>
</a>
</svg>
