<svg width="16" height="16" viewBox="0 0 16 16" fill="none" xmlns="http://www.w3.org/2000/svg">
<path d="M13.5181 3.91797C13.5181 4.06445 13.5181 4.18164 13.5181 4.32812C13.5181 8.40039 10.442 13.0586 4.78768 13.0586C3.02987 13.0586 1.41854 12.5605 0.0708838 11.6816C0.305259 11.7109 0.539634 11.7402 0.803306 11.7402C2.23885 11.7402 3.55721 11.2422 4.6119 10.4219C3.26424 10.3926 2.12167 9.51367 1.74081 8.2832C1.94588 8.3125 2.12167 8.3418 2.32674 8.3418C2.59042 8.3418 2.88338 8.2832 3.11776 8.22461C1.71151 7.93164 0.656821 6.70117 0.656821 5.20703V5.17773C1.06698 5.41211 1.56502 5.5293 2.06307 5.55859C1.21346 5.00195 0.686118 4.06445 0.686118 3.00977C0.686118 2.42383 0.832603 1.89648 1.09627 1.45703C2.61971 3.30273 4.90487 4.5332 7.4537 4.67969C7.3951 4.44531 7.36581 4.21094 7.36581 3.97656C7.36581 2.27734 8.74276 0.900391 10.442 0.900391C11.3209 0.900391 12.1119 1.25195 12.6978 1.86719C13.3717 1.7207 14.0455 1.45703 14.6314 1.10547C14.3971 1.83789 13.9283 2.42383 13.2838 2.80469C13.899 2.74609 14.5142 2.57031 15.0416 2.33594C14.6314 2.95117 14.1041 3.47852 13.5181 3.91797Z" fill="#1A1A1A"/>
<a href="https://www.figma.com/design/0zvQOIkcUwDFJp7ufXK3kh?node-id=2-3109">
<rect fill="black" fill-opacity="0" x="-0.749063" y="-1.125" width="15" height="17.25"/>
</a>
</svg>
