<svg width="20" height="25" viewBox="0 0 20 25" fill="none" xmlns="http://www.w3.org/2000/svg">
<g clip-path="url(#clip0_1_772)">
<path d="M16.0389 13.1836C16.0389 13.2846 15.8873 16.266 19.1719 17.8325C18.5655 19.7022 16.4432 23.8458 13.9671 23.8458C12.5522 23.8458 11.7437 22.9362 10.1267 22.9362C8.45911 22.9362 7.54953 23.8458 6.28623 23.8458C3.8607 23.9469 1.53623 19.399 0.879322 17.5293C0.374003 16.1144 0.171875 14.7501 0.171875 13.4362C0.171875 8.9389 3.15325 6.76603 5.98305 6.7155C7.3474 6.7155 9.06549 7.6756 9.82347 7.6756C10.5309 7.6756 12.5017 6.51337 14.3208 6.66496C16.1905 6.81656 17.6054 7.52401 18.5655 8.88837C16.898 9.94954 16.0389 11.3139 16.0389 13.1836ZM13.2091 4.89635C12.1985 6.05858 10.9857 6.7155 9.67188 6.61443C9.57082 5.25007 10.0761 3.98677 10.9857 2.97613C11.7942 2.06656 13.2091 1.30858 14.4219 1.20752C14.4219 1.76337 14.5735 3.27933 13.2091 4.89635Z" fill="#FFFFFF"/>
</g>
<defs>
<clipPath id="clip0_1_772">
<rect width="19" height="24" fill="white" transform="translate(0.171875 0.669922)"/>
</clipPath>
</defs>
</svg>
