<svg width="14" height="13" viewBox="0 0 14 13" fill="none" xmlns="http://www.w3.org/2000/svg">
<g clip-path="url(#clip0_2_391)">
<path d="M0.8125 5.5851H12.0341L7.73716 1.49235C7.51216 1.27804 7.50344 0.921973 7.71775 0.696973C7.93178 0.472254 8.28784 0.463254 8.51312 0.677567L13.4204 5.35194C13.6327 5.56457 13.75 5.84694 13.75 6.1476C13.75 6.44797 13.6327 6.73063 13.4105 6.95254L8.51284 11.6173C8.404 11.7211 8.2645 11.7726 8.125 11.7726C7.9765 11.7726 7.828 11.7141 7.71747 11.5979C7.50316 11.3729 7.51188 11.0171 7.73688 10.8028L12.0518 6.7101H0.8125C0.502 6.7101 0.25 6.4581 0.25 6.1476C0.25 5.8371 0.502 5.5851 0.8125 5.5851Z" fill="#1A1A1A"/>
</g>
<defs>
<clipPath id="clip0_2_391">
<rect width="14" height="12" fill="white" transform="translate(0 0.290039)"/>
</clipPath>
</defs>
</svg>
