<svg width="51" height="51" viewBox="0 0 51 51" fill="none" xmlns="http://www.w3.org/2000/svg">
<g clip-path="url(#clip0_1_516)">
<path d="M4.40885 6.74674C4.63108 6.74674 4.8533 6.69119 5.07552 6.58008L6.74219 4.91341C6.8533 4.69119 6.90885 4.46897 6.90885 4.24674C6.90885 4.02452 6.82552 3.83008 6.65885 3.66341C6.49219 3.49674 6.29774 3.41341 6.07552 3.41341C5.8533 3.41341 5.63108 3.46897 5.40885 3.58008L3.74219 5.24674C3.51997 5.58008 3.49219 5.91341 3.65885 6.24674C3.82552 6.58008 4.07552 6.74674 4.40885 6.74674ZM4.40885 10.9134C4.63108 10.9134 4.8533 10.8579 5.07552 10.7467L10.9089 4.91341C11.1311 4.69119 11.1866 4.41341 11.0755 4.08008C10.9644 3.74674 10.7422 3.52452 10.4089 3.41341C10.0755 3.3023 9.79774 3.35785 9.57552 3.58008L3.74219 9.41341C3.51997 9.74674 3.49219 10.0801 3.65885 10.4134C3.82552 10.7467 4.07552 10.9134 4.40885 10.9134ZM46.0755 0.0800781H4.40885C3.29774 0.0800781 2.32552 0.496742 1.49219 1.33008C0.658854 2.16341 0.242188 3.13563 0.242188 4.24674V37.5801C0.242188 38.6912 0.658854 39.6634 1.49219 40.4967C2.32552 41.3301 3.29774 41.7467 4.40885 41.7467H18.5755V44.2467H16.0755C15.1866 44.2467 14.4089 44.5801 13.7422 45.2467C13.0755 45.9134 12.7422 46.6912 12.7422 47.5801V48.4134C12.7422 48.8579 12.9089 49.2467 13.2422 49.5801C13.5755 49.9134 13.9644 50.0801 14.4089 50.0801H36.0755C36.52 50.0801 36.9089 49.9134 37.2422 49.5801C37.5755 49.2467 37.7422 48.8579 37.7422 48.4134V47.5801C37.7422 46.6912 37.4089 45.9134 36.7422 45.2467C36.0755 44.5801 35.2977 44.2467 34.4089 44.2467H31.9089V41.7467H46.0755C47.1866 41.7467 48.1589 41.3301 48.9922 40.4967C49.8255 39.6634 50.2422 38.6912 50.2422 37.5801V4.24674C50.2422 3.13563 49.8255 2.16341 48.9922 1.33008C48.1589 0.496742 47.1866 0.0800781 46.0755 0.0800781ZM48.5755 33.4134H41.9089V18.4134H48.5755V33.4134ZM48.5755 16.7467H41.9089V10.0801H48.5755V16.7467ZM48.5755 4.24674V8.41341H41.9089V1.74674H46.0755C46.7422 1.74674 47.3255 1.99674 47.8255 2.49674C48.3255 2.99674 48.5755 3.58008 48.5755 4.24674ZM4.40885 1.74674H40.2422V33.4134H1.90885V4.24674C1.90885 3.58008 2.15885 2.99674 2.65885 2.49674C3.15885 1.99674 3.74219 1.74674 4.40885 1.74674ZM36.0755 47.5801V48.4134H14.4089V47.5801C14.4089 47.1356 14.5755 46.7467 14.9089 46.4134C15.2422 46.0801 15.6311 45.9134 16.0755 45.9134H34.4089C34.8533 45.9134 35.2422 46.0801 35.5755 46.4134C35.9089 46.7467 36.0755 47.1356 36.0755 47.5801ZM30.2422 44.2467H20.2422V41.7467H30.2422V44.2467ZM46.0755 40.0801H4.40885C3.74219 40.0801 3.15885 39.8301 2.65885 39.3301C2.15885 38.8301 1.90885 38.2467 1.90885 37.5801V35.0801H48.5755V37.5801C48.5755 38.2467 48.3255 38.8301 47.8255 39.3301C47.3255 39.8301 46.7422 40.0801 46.0755 40.0801ZM27.7422 36.7467H22.7422C22.52 36.7467 22.3255 36.8301 22.1589 36.9967C21.9922 37.1634 21.9089 37.3579 21.9089 37.5801C21.9089 37.8023 21.9922 37.9967 22.1589 38.1634C22.3255 38.3301 22.52 38.4134 22.7422 38.4134H27.7422C27.9644 38.4134 28.1589 38.3301 28.3255 38.1634C28.4922 37.9967 28.5755 37.8023 28.5755 37.5801C28.5755 37.3579 28.4922 37.1634 28.3255 36.9967C28.1589 36.8301 27.9644 36.7467 27.7422 36.7467ZM42.9089 6.58008C43.1311 6.69119 43.3533 6.74674 43.5755 6.74674C43.7977 6.74674 44.02 6.69119 44.2422 6.58008L45.2422 5.41341L46.2422 6.58008C46.4644 6.69119 46.6866 6.74674 46.9089 6.74674C47.1311 6.74674 47.3255 6.66341 47.4922 6.49674C47.6589 6.33008 47.7422 6.13563 47.7422 5.91341C47.7422 5.69119 47.6866 5.46897 47.5755 5.24674L45.9089 3.58008C45.6866 3.46897 45.4644 3.41341 45.2422 3.41341C45.02 3.41341 44.7977 3.46897 44.5755 3.58008L42.9089 5.24674C42.7977 5.46897 42.7422 5.69119 42.7422 5.91341C42.7422 6.13563 42.7977 6.35785 42.9089 6.58008ZM44.5755 31.5801C44.7977 31.6912 45.02 31.7467 45.2422 31.7467C45.4644 31.7467 45.6866 31.6912 45.9089 31.5801L47.5755 29.9134C47.6866 29.6912 47.7422 29.469 47.7422 29.2467C47.7422 29.0245 47.6589 28.8301 47.4922 28.6634C47.3255 28.4967 47.1311 28.4134 46.9089 28.4134C46.6866 28.4134 46.4644 28.469 46.2422 28.5801L45.2422 29.7467L44.2422 28.5801C44.02 28.469 43.7977 28.4134 43.5755 28.4134C43.3533 28.4134 43.1589 28.4967 42.9922 28.6634C42.8255 28.8301 42.7422 29.0245 42.7422 29.2467C42.7422 29.469 42.7977 29.6912 42.9089 29.9134L44.5755 31.5801ZM43.5755 14.2467H46.9089C47.1311 14.2467 47.3255 14.1634 47.4922 13.9967C47.6589 13.8301 47.7422 13.6356 47.7422 13.4134C47.7422 13.1912 47.6589 12.9967 47.4922 12.8301C47.3255 12.6634 47.1311 12.5801 46.9089 12.5801H43.5755C43.3533 12.5801 43.1589 12.6634 42.9922 12.8301C42.8255 12.9967 42.7422 13.1912 42.7422 13.4134C42.7422 13.6356 42.8255 13.8301 42.9922 13.9967C43.1589 14.1634 43.3533 14.2467 43.5755 14.2467ZM4.57552 15.5801C4.79774 16.3579 5.29774 16.7467 6.07552 16.7467V25.0801C6.07552 25.5245 6.24219 25.9134 6.57552 26.2467C6.90885 26.5801 7.29774 26.7467 7.74219 26.7467H21.0755C21.52 26.7467 21.9089 26.5801 22.2422 26.2467C22.5755 25.9134 22.7422 25.5245 22.7422 25.0801V16.7467C23.52 16.7467 24.02 16.3579 24.2422 15.5801C24.3533 15.3579 24.3811 15.0523 24.3255 14.6634C24.27 14.2745 24.1311 13.969 23.9089 13.7467L22.7422 12.7467V8.41341C22.7422 7.96897 22.5755 7.58008 22.2422 7.24674C21.9089 6.91341 21.52 6.74674 21.0755 6.74674H19.4089C18.9644 6.74674 18.5755 6.88563 18.2422 7.16341C17.9089 7.44119 17.7422 7.8023 17.7422 8.24674L15.5755 6.41341C15.2422 6.08008 14.8533 5.91341 14.4089 5.91341C13.9644 5.91341 13.5755 6.08008 13.2422 6.41341L4.90885 13.7467C4.68663 13.969 4.54774 14.2745 4.49219 14.6634C4.43663 15.0523 4.46441 15.3579 4.57552 15.5801ZM13.5755 25.0801V22.5801C13.5755 22.3579 13.6589 22.1634 13.8255 21.9967C13.9922 21.8301 14.1866 21.7467 14.4089 21.7467C14.6311 21.7467 14.8255 21.8301 14.9922 21.9967C15.1589 22.1634 15.2422 22.3579 15.2422 22.5801V25.0801H13.5755ZM16.9089 25.0801V22.5801C16.9089 21.9134 16.6589 21.3301 16.1589 20.8301C15.6589 20.3301 15.0755 20.0801 14.4089 20.0801C13.7422 20.0801 13.1589 20.3301 12.6589 20.8301C12.1589 21.3301 11.9089 21.9134 11.9089 22.5801V25.0801H7.74219V16.7467H21.0755V25.0801H16.9089ZM19.4089 8.41341H21.0755V11.2467L19.4089 9.74674V8.41341ZM14.4089 7.58008L22.7422 15.0801H6.07552L14.4089 7.58008ZM26.9089 21.7467H36.9089C37.1311 21.7467 37.3255 21.6634 37.4922 21.4967C37.6589 21.3301 37.7422 21.1356 37.7422 20.9134C37.7422 20.6912 37.6589 20.4967 37.4922 20.3301C37.3255 20.1634 37.1311 20.0801 36.9089 20.0801H26.9089C26.6866 20.0801 26.4922 20.1634 26.3255 20.3301C26.1589 20.4967 26.0755 20.6912 26.0755 20.9134C26.0755 21.1356 26.1589 21.3301 26.3255 21.4967C26.4922 21.6634 26.6866 21.7467 26.9089 21.7467ZM26.9089 25.9134H36.9089C37.1311 25.9134 37.3255 25.8301 37.4922 25.6634C37.6589 25.4967 37.7422 25.3023 37.7422 25.0801C37.7422 24.8579 37.6589 24.6634 37.4922 24.4967C37.3255 24.3301 37.1311 24.2467 36.9089 24.2467H26.9089C26.6866 24.2467 26.4922 24.3301 26.3255 24.4967C26.1589 24.6634 26.0755 24.8579 26.0755 25.0801C26.0755 25.3023 26.1589 25.4967 26.3255 25.6634C26.4922 25.8301 26.6866 25.9134 26.9089 25.9134ZM26.9089 30.0801H31.9089C32.1311 30.0801 32.3255 29.9967 32.4922 29.8301C32.6589 29.6634 32.7422 29.469 32.7422 29.2467C32.7422 29.0245 32.6589 28.8301 32.4922 28.6634C32.3255 28.4967 32.1311 28.4134 31.9089 28.4134H26.9089C26.6866 28.4134 26.4922 28.4967 26.3255 28.6634C26.1589 28.8301 26.0755 29.0245 26.0755 29.2467C26.0755 29.469 26.1589 29.6634 26.3255 29.8301C26.4922 29.9967 26.6866 30.0801 26.9089 30.0801ZM29.4089 13.4134C29.4089 13.1912 29.3255 12.9967 29.1589 12.8301C28.9922 12.6634 28.7977 12.5801 28.5755 12.5801C28.3533 12.5801 28.1589 12.6634 27.9922 12.8301C27.8255 12.9967 27.7422 13.1912 27.7422 13.4134C27.7422 14.1912 28.0477 14.8856 28.6589 15.4967C29.27 16.1079 30.0755 16.5245 31.0755 16.7467V17.5801C31.0755 17.8023 31.1589 17.9967 31.3255 18.1634C31.4922 18.3301 31.6866 18.4134 31.9089 18.4134C32.1311 18.4134 32.3255 18.3301 32.4922 18.1634C32.6589 17.9967 32.7422 17.8023 32.7422 17.5801V16.7467C33.7422 16.5245 34.5477 16.1079 35.1589 15.4967C35.77 14.8856 36.0755 14.1912 36.0755 13.4134C36.0755 12.6356 35.77 11.9412 35.1589 11.3301C34.5477 10.719 33.7422 10.3023 32.7422 10.0801V6.91341C33.1866 7.02452 33.5755 7.21897 33.9089 7.49674C34.2422 7.77452 34.4089 8.0523 34.4089 8.33008C34.4089 8.60785 34.4922 8.83008 34.6589 8.99674C34.8255 9.16341 35.02 9.24674 35.2422 9.24674C35.4644 9.24674 35.6589 9.16341 35.8255 8.99674C35.9922 8.83008 36.0755 8.63563 36.0755 8.41341C36.0755 7.63563 35.77 6.94119 35.1589 6.33008C34.5477 5.71897 33.7422 5.3023 32.7422 5.08008V4.24674C32.7422 4.02452 32.6589 3.83008 32.4922 3.66341C32.3255 3.49674 32.1311 3.41341 31.9089 3.41341C31.6866 3.41341 31.4922 3.49674 31.3255 3.66341C31.1589 3.83008 31.0755 4.02452 31.0755 4.24674V5.08008C30.0755 5.3023 29.27 5.71897 28.6589 6.33008C28.0477 6.94119 27.7422 7.63563 27.7422 8.41341C27.7422 9.19119 28.0477 9.88563 28.6589 10.4967C29.27 11.1079 30.0755 11.5245 31.0755 11.7467V14.9134C30.6311 14.8023 30.2422 14.6079 29.9089 14.3301C29.5755 14.0523 29.4089 13.7467 29.4089 13.4134ZM34.4089 13.4134C34.4089 13.7467 34.2422 14.0523 33.9089 14.3301C33.5755 14.6079 33.1866 14.8023 32.7422 14.9134V11.9134C33.1866 12.0245 33.5755 12.219 33.9089 12.4967C34.2422 12.7745 34.4089 13.0801 34.4089 13.4134ZM29.4089 8.41341C29.4089 8.08008 29.5755 7.77452 29.9089 7.49674C30.2422 7.21897 30.6311 7.02452 31.0755 6.91341V9.91341C30.6311 9.8023 30.2422 9.60785 29.9089 9.33008C29.5755 9.0523 29.4089 8.74674 29.4089 8.41341ZM10.2422 29.2467C10.2422 29.469 10.3255 29.6634 10.4922 29.8301C10.6589 29.9967 10.8533 30.0801 11.0755 30.0801C11.2977 30.0801 11.4922 29.9967 11.6589 29.8301C11.8255 29.6634 11.9089 29.469 11.9089 29.2467C11.9089 29.0245 11.8255 28.8301 11.6589 28.6634C11.4922 28.4967 11.2977 28.4134 11.0755 28.4134C10.8533 28.4134 10.6589 28.4967 10.4922 28.6634C10.3255 28.8301 10.2422 29.0245 10.2422 29.2467ZM13.5755 29.2467C13.5755 29.469 13.6589 29.6634 13.8255 29.8301C13.9922 29.9967 14.1866 30.0801 14.4089 30.0801C14.6311 30.0801 14.8255 29.9967 14.9922 29.8301C15.1589 29.6634 15.2422 29.469 15.2422 29.2467C15.2422 29.0245 15.1589 28.8301 14.9922 28.6634C14.8255 28.4967 14.6311 28.4134 14.4089 28.4134C14.1866 28.4134 13.9922 28.4967 13.8255 28.6634C13.6589 28.8301 13.5755 29.0245 13.5755 29.2467ZM16.9089 29.2467C16.9089 29.469 16.9922 29.6634 17.1589 29.8301C17.3255 29.9967 17.52 30.0801 17.7422 30.0801C17.9644 30.0801 18.1589 29.9967 18.3255 29.8301C18.4922 29.6634 18.5755 29.469 18.5755 29.2467C18.5755 29.0245 18.4922 28.8301 18.3255 28.6634C18.1589 28.4967 17.9644 28.4134 17.7422 28.4134C17.52 28.4134 17.3255 28.4967 17.1589 28.6634C16.9922 28.8301 16.9089 29.0245 16.9089 29.2467Z" fill="#1A1A1A"/>
</g>
<defs>
<clipPath id="clip0_1_516">
<rect width="50.02" height="50" fill="white" transform="matrix(1 0 0 -1 0.230469 50.0801)"/>
</clipPath>
</defs>
</svg>
