<svg width="61" height="61" viewBox="0 0 61 61" fill="none" xmlns="http://www.w3.org/2000/svg">
<g clip-path="url(#clip0_2_34)">
<path d="M59.6602 44.28L57.8605 42.68V35.68C57.8605 34.48 57.4272 33.4466 56.5607 32.58C55.6942 31.7133 54.6943 31.28 53.5612 31.28C52.4281 31.28 51.4615 31.6133 50.6617 32.28C49.8618 32.9466 49.3286 33.8133 49.0619 34.88L47.4622 33.48C46.6623 32.68 45.6625 32.28 44.4627 32.28C43.2629 32.28 42.1964 32.68 41.2632 33.48L29.0653 44.28C28.7987 44.5466 28.6653 44.88 28.6653 45.28C28.6653 45.68 28.7653 46.0133 28.9653 46.28C29.1653 46.5466 29.4652 46.68 29.8651 46.68C30.2651 46.68 30.5984 46.6133 30.865 46.48V56.28C30.865 57.48 31.2649 58.48 32.0648 59.28C32.8646 60.08 33.7978 60.48 34.8643 60.48H53.8611C55.0609 60.48 56.0275 60.08 56.7607 59.28C57.4939 58.48 57.8605 57.48 57.8605 56.28V46.48C58.2604 46.6133 58.627 46.68 58.9603 46.68C59.2936 46.68 59.5935 46.5133 59.8601 46.18C60.1268 45.8466 60.2268 45.5133 60.1601 45.18C60.0934 44.8466 59.9268 44.5466 59.6602 44.28ZM46.8623 57.68H42.2631V54.28C42.2631 53.7466 42.463 53.28 42.863 52.88C43.2629 52.48 43.7295 52.28 44.2627 52.28H44.8626C45.3959 52.28 45.8625 52.48 46.2624 52.88C46.6623 53.28 46.8623 53.7466 46.8623 54.28V57.68ZM55.0609 56.28C55.0609 56.68 54.961 57.0133 54.761 57.28C54.561 57.5466 54.2611 57.68 53.8611 57.68H49.6618V54.28C49.6618 52.9466 49.1953 51.8133 48.2621 50.88C47.3289 49.9466 46.1958 49.48 44.8626 49.48H44.2627C42.9296 49.48 41.7965 49.9466 40.8633 50.88C39.9301 51.8133 39.4635 52.9466 39.4635 54.28V57.68H34.8643C34.5977 57.68 34.3311 57.5466 34.0644 57.28C33.7978 57.0133 33.6645 56.68 33.6645 56.28V43.88L43.0629 35.68C43.4629 35.28 43.8961 35.08 44.3627 35.08C44.8293 35.08 45.2626 35.28 45.6625 35.68L55.0609 43.88V56.28ZM55.0609 35.68V40.28L51.8615 37.28V35.68C51.8615 35.28 51.9948 34.9133 52.2614 34.58C52.528 34.2466 52.8946 34.0466 53.3612 33.98C53.8278 33.9133 54.2278 34.0466 54.561 34.38C54.8943 34.7133 55.0609 35.1466 55.0609 35.68ZM44.4627 38.48C43.2629 38.48 42.2631 38.9133 41.4632 39.78C40.6633 40.6466 40.2634 41.6466 40.2634 42.78C40.2634 43.9133 40.6633 44.88 41.4632 45.68C42.2631 46.48 43.2296 46.88 44.3627 46.88C45.4959 46.88 46.4957 46.48 47.3622 45.68C48.2288 44.88 48.662 43.9133 48.662 42.78C48.662 41.6466 48.2288 40.6466 47.3622 39.78C46.4957 38.9133 45.5292 38.48 44.4627 38.48ZM45.6625 42.68C45.6625 43.08 45.5625 43.4133 45.3626 43.68C45.1626 43.9466 44.8626 44.08 44.4627 44.08C44.0628 44.08 43.7295 43.9466 43.4629 43.68C43.1963 43.4133 43.0629 43.08 43.0629 42.68C43.0629 42.28 43.1963 41.9466 43.4629 41.68C43.7295 41.4133 44.0628 41.28 44.4627 41.28C44.8626 41.28 45.1626 41.4133 45.3626 41.68C45.5625 41.9466 45.6625 42.28 45.6625 42.68ZM26.2657 57.48H8.46871C7.26891 57.48 6.20242 57.0466 5.26925 56.18C4.33607 55.3133 3.86948 54.28 3.86948 53.08V8.67998C3.86948 7.47998 4.33607 6.41331 5.26925 5.47998C6.20242 4.54665 7.26891 4.07998 8.46871 4.07998H49.0619C50.3951 4.07998 51.4949 4.54665 52.3614 5.47998C53.2279 6.41331 53.6612 7.47998 53.6612 8.67998V26.48C53.6612 26.88 53.7945 27.2133 54.0611 27.48C54.3277 27.7466 54.661 27.88 55.0609 27.88C55.4609 27.88 55.7942 27.7466 56.0608 27.48C56.3274 27.2133 56.4607 26.88 56.4607 26.48V8.67998C56.4607 6.67998 55.7275 4.94665 54.2611 3.47998C52.7947 2.01331 51.0616 1.27998 49.0619 1.27998H8.46871C6.46905 1.27998 4.736 2.01331 3.26958 3.47998C1.80316 4.94665 1.06995 6.67998 1.06995 8.67998V53.08C1.06995 55.08 1.80316 56.8133 3.26958 58.28C4.736 59.7466 6.46905 60.48 8.46871 60.48H26.2657C26.6657 60.48 27.0323 60.3133 27.3656 59.98C27.6988 59.6466 27.8655 59.3133 27.8655 58.98C27.8655 58.6466 27.6988 58.3133 27.3656 57.98C27.0323 57.6466 26.6657 57.48 26.2657 57.48ZM43.6628 15.48C43.6628 15.08 43.5295 14.7466 43.2629 14.48C42.9963 14.2133 42.663 14.08 42.2631 14.08H14.4677C14.0678 14.08 13.7345 14.2133 13.4679 14.48C13.2013 14.7466 13.0679 15.08 13.0679 15.48C13.0679 15.88 13.2013 16.2133 13.4679 16.48C13.7345 16.7466 14.0678 16.88 14.4677 16.88H42.2631C42.663 16.88 42.9963 16.7466 43.2629 16.48C43.5295 16.2133 43.6628 15.88 43.6628 15.48ZM36.864 26.28C36.864 26.0133 36.7307 25.7133 36.464 25.38C36.1974 25.0466 35.8641 24.88 35.4642 24.88H14.4677C14.0678 24.88 13.7345 25.0466 13.4679 25.38C13.2013 25.7133 13.0679 26.0466 13.0679 26.38C13.0679 26.7133 13.2013 27.0466 13.4679 27.38C13.7345 27.7133 14.0678 27.88 14.4677 27.88H35.4642C35.8641 27.88 36.1974 27.7133 36.464 27.38C36.7307 27.0466 36.864 26.68 36.864 26.28ZM14.4677 35.88C14.0678 35.88 13.7345 36.0133 13.4679 36.28C13.2013 36.5466 13.0679 36.88 13.0679 37.28C13.0679 37.68 13.2013 38.0133 13.4679 38.28C13.7345 38.5466 14.0678 38.68 14.4677 38.68H23.0663C23.3329 38.68 23.6329 38.5466 23.9661 38.28C24.2994 38.0133 24.466 37.68 24.466 37.28C24.466 36.88 24.2994 36.5466 23.9661 36.28C23.6329 36.0133 23.3329 35.88 23.0663 35.88H14.4677Z" fill="#1A1A1A"/>
</g>
<defs>
<clipPath id="clip0_2_34">
<rect width="60.01" height="60" fill="white" transform="matrix(1 0 0 -1 0.659973 60.88)"/>
</clipPath>
</defs>
</svg>
