<svg width="8" height="6" viewBox="0 0 8 6" fill="none" xmlns="http://www.w3.org/2000/svg">
<mask id="path-1-inside-1_2_366" fill="white">
<path d="M0 0.109985H8V5.10999H0V0.109985Z"/>
</mask>
<g clip-path="url(#paint0_diamond_2_366_clip_path)" data-figma-skip-parse="true" mask="url(#path-1-inside-1_2_366)"><g transform="matrix(0.004 0 0 0.005 4 0.109985)"><rect x="0" y="0" width="2250" height="2000" fill="url(#paint0_diamond_2_366)" opacity="1" shape-rendering="crispEdges"/><rect x="0" y="0" width="2250" height="2000" transform="scale(1 -1)" fill="url(#paint0_diamond_2_366)" opacity="1" shape-rendering="crispEdges"/><rect x="0" y="0" width="2250" height="2000" transform="scale(-1 1)" fill="url(#paint0_diamond_2_366)" opacity="1" shape-rendering="crispEdges"/><rect x="0" y="0" width="2250" height="2000" transform="scale(-1)" fill="url(#paint0_diamond_2_366)" opacity="1" shape-rendering="crispEdges"/></g></g><path d="M0 0.109985V-4.89001H-4V0.109985H0ZM8 0.109985H12V-4.89001H8V0.109985ZM0 5.10999H8V-4.89001H0V5.10999ZM4 0.109985V5.10999H12V0.109985H4ZM4 5.10999V0.109985H-4V5.10999H4Z" data-figma-gradient-fill="{&#34;type&#34;:&#34;GRADIENT_DIAMOND&#34;,&#34;stops&#34;:[{&#34;color&#34;:{&#34;r&#34;:1.0,&#34;g&#34;:1.0,&#34;b&#34;:1.0,&#34;a&#34;:1.0},&#34;position&#34;:0.99999988079071045},{&#34;color&#34;:{&#34;r&#34;:0.0,&#34;g&#34;:0.0,&#34;b&#34;:0.0,&#34;a&#34;:0.0},&#34;position&#34;:1.0}],&#34;stopsVar&#34;:[],&#34;transform&#34;:{&#34;m00&#34;:8.0,&#34;m01&#34;:0.0,&#34;m02&#34;:0.0,&#34;m10&#34;:0.0,&#34;m11&#34;:10.0,&#34;m12&#34;:-4.89001464843750},&#34;opacity&#34;:1.0,&#34;blendMode&#34;:&#34;NORMAL&#34;,&#34;visible&#34;:true}" mask="url(#path-1-inside-1_2_366)"/>
<defs>
<clipPath id="paint0_diamond_2_366_clip_path"><path d="M0 0.109985V-4.89001H-4V0.109985H0ZM8 0.109985H12V-4.89001H8V0.109985ZM0 5.10999H8V-4.89001H0V5.10999ZM4 0.109985V5.10999H12V0.109985H4ZM4 5.10999V0.109985H-4V5.10999H4Z" mask="url(#path-1-inside-1_2_366)"/></clipPath><linearGradient id="paint0_diamond_2_366" x1="0" y1="0" x2="500" y2="500" gradientUnits="userSpaceOnUse">
<stop offset="1" stop-color="white"/>
<stop offset="1" stop-opacity="0"/>
</linearGradient>
</defs>
</svg>
