<svg width="19" height="19" viewBox="0 0 19 19" fill="none" xmlns="http://www.w3.org/2000/svg">
<path d="M12.07 3.61001C11.39 3.61001 10.79 3.83002 10.27 4.27001C9.75001 4.71002 9.43001 5.25002 9.31001 5.89001H1.93001C1.77001 5.89001 1.64001 5.94001 1.54001 6.04002C1.44001 6.14001 1.39001 6.27001 1.39001 6.43001C1.39001 6.59001 1.44001 6.73001 1.54001 6.85001C1.64001 6.97002 1.77001 7.03001 1.93001 7.03001H9.31001C9.43001 7.67001 9.75001 8.20001 10.27 8.62001C10.79 9.04001 11.39 9.25001 12.07 9.25001C12.75 9.25001 13.34 9.04001 13.84 8.62001C14.34 8.20001 14.67 7.67001 14.83 7.03001H16.57C16.73 7.03001 16.86 6.97002 16.96 6.85001C17.06 6.73001 17.11 6.59001 17.11 6.43001C17.11 6.27001 17.06 6.14001 16.96 6.04002C16.86 5.94001 16.73 5.89001 16.57 5.89001H14.83C14.67 5.25002 14.34 4.71002 13.84 4.27001C13.34 3.83002 12.75 3.61001 12.07 3.61001ZM12.07 4.75002C12.55 4.75002 12.95 4.92002 13.27 5.26001C13.59 5.60001 13.75 6.00002 13.75 6.46002C13.75 6.92001 13.59 7.31001 13.27 7.63001C12.95 7.95001 12.55 8.11001 12.07 8.11001C11.59 8.11001 11.19 7.95001 10.87 7.63001C10.55 7.31001 10.39 6.92001 10.39 6.46002C10.39 6.00002 10.55 5.60001 10.87 5.26001C11.19 4.92002 11.59 4.75002 12.07 4.75002ZM6.43001 9.25001C5.75001 9.25001 5.16001 9.46001 4.66001 9.88001C4.16001 10.3 3.83001 10.85 3.67001 11.53H1.93001C1.77001 11.53 1.64001 11.58 1.54001 11.68C1.44001 11.78 1.39001 11.91 1.39001 12.07C1.39001 12.23 1.44001 12.36 1.54001 12.46C1.64001 12.56 1.77001 12.61 1.93001 12.61H3.67001C3.83001 13.29 4.16001 13.84 4.66001 14.26C5.16001 14.68 5.75001 14.89 6.43001 14.89C7.11001 14.89 7.71001 14.68 8.23001 14.26C8.75001 13.84 9.07001 13.29 9.19001 12.61H16.57C16.73 12.61 16.86 12.56 16.96 12.46C17.06 12.36 17.11 12.23 17.11 12.07C17.11 11.91 17.06 11.78 16.96 11.68C16.86 11.58 16.73 11.53 16.57 11.53H9.19001C9.07001 10.85 8.75001 10.3 8.23001 9.88001C7.71001 9.46001 7.11001 9.25001 6.43001 9.25001ZM6.43001 10.39C6.91001 10.39 7.31001 10.55 7.63001 10.87C7.95001 11.19 8.11001 11.59 8.11001 12.07C8.11001 12.55 7.95001 12.95 7.63001 13.27C7.31001 13.59 6.91001 13.75 6.43001 13.75C5.95001 13.75 5.55001 13.59 5.23001 13.27C4.91001 12.95 4.75001 12.55 4.75001 12.07C4.75001 11.59 4.91001 11.19 5.23001 10.87C5.55001 10.55 5.95001 10.39 6.43001 10.39Z" fill="white"/>
</svg>
