<svg width="51" height="51" viewBox="0 0 51 51" fill="none" xmlns="http://www.w3.org/2000/svg">
<g clip-path="url(#clip0_1_512)">
<path d="M29.0755 19.9134C27.9644 19.9134 26.9922 20.3301 26.1589 21.1634C25.3255 21.9967 24.9089 22.969 24.9089 24.0801C24.9089 25.1912 25.3255 26.1634 26.1589 26.9967C26.9922 27.8301 27.9644 28.2467 29.0755 28.2467C30.1866 28.2467 31.1589 27.8301 31.9922 26.9967C32.8255 26.1634 33.2422 25.1912 33.2422 24.0801C33.2422 22.969 32.8255 21.9967 31.9922 21.1634C31.1589 20.3301 30.1866 19.9134 29.0755 19.9134ZM29.0755 26.2467C28.52 26.2467 28.02 26.0523 27.5755 25.6634C27.1311 25.2745 26.9089 24.7745 26.9089 24.1634C26.9089 23.5523 27.1311 23.0245 27.5755 22.5801C28.02 22.1356 28.5477 21.9134 29.1589 21.9134C29.77 21.9134 30.27 22.1356 30.6589 22.5801C31.0477 23.0245 31.2422 23.5523 31.2422 24.1634C31.2422 24.7745 31.0477 25.2745 30.6589 25.6634C30.27 26.0523 29.7422 26.2467 29.0755 26.2467ZM47.0755 29.2467L50.4089 25.9134C50.6311 25.6912 50.7422 25.469 50.7422 25.2467C50.7422 25.0245 50.6311 24.8023 50.4089 24.5801L44.9089 18.9134V9.24674C44.9089 9.02452 44.7977 8.8023 44.5755 8.58008C44.3533 8.35785 44.1311 8.24674 43.9089 8.24674H38.4089C38.1866 8.24674 37.9644 8.35785 37.7422 8.58008C37.52 8.8023 37.4089 9.02452 37.4089 9.24674V11.5801L31.4089 5.58008C30.7422 4.91341 29.9644 4.58008 29.0755 4.58008C28.1866 4.58008 27.4089 4.91341 26.7422 5.58008L23.4089 8.91341C22.8533 6.35785 21.52 4.24674 19.4089 2.58008C17.2977 0.91341 14.9089 0.0800781 12.2422 0.0800781C10.7977 0.0800781 9.40885 0.357853 8.07552 0.91341C7.8533 0.91341 7.68663 1.0523 7.57552 1.33008C7.46441 1.60785 7.46441 1.85785 7.57552 2.08008C7.68663 2.3023 7.8533 2.46897 8.07552 2.58008C8.29774 2.69119 8.57552 2.74674 8.90885 2.74674C9.90885 2.3023 11.02 2.08008 12.2422 2.08008C14.02 2.08008 15.6311 2.49674 17.0755 3.33008C18.52 4.16341 19.6866 5.33008 20.5755 6.83008C21.4644 8.33008 21.9089 9.94119 21.9089 11.6634C21.9089 13.3856 21.4644 14.969 20.5755 16.4134C19.6866 17.8579 18.52 19.0245 17.0755 19.9134C15.6311 20.8023 14.0477 21.2467 12.3255 21.2467C10.6033 21.2467 8.99219 20.8023 7.49219 19.9134C5.99219 19.0245 4.82552 17.8579 3.99219 16.4134C3.15885 14.969 2.74219 13.3579 2.74219 11.5801C2.74219 10.3579 2.90885 9.24674 3.24219 8.24674C3.3533 7.91341 3.3533 7.63563 3.24219 7.41341C3.13108 7.19119 2.96441 7.02452 2.74219 6.91341C2.51997 6.8023 2.26997 6.8023 1.99219 6.91341C1.71441 7.02452 1.57552 7.19119 1.57552 7.41341C1.01997 8.74674 0.742188 10.1356 0.742188 11.5801C0.742188 14.2467 1.57552 16.6356 3.24219 18.7467C4.90885 20.8579 7.01997 22.1912 9.57552 22.7467L7.74219 24.5801C7.51997 24.8023 7.40885 25.0245 7.40885 25.2467C7.40885 25.469 7.51997 25.6912 7.74219 25.9134L11.0755 29.2467C11.1866 29.3579 11.3533 29.469 11.5755 29.5801V44.2467H9.74219C9.51997 44.2467 9.29774 44.3301 9.07552 44.4967C8.8533 44.6634 8.74219 44.9134 8.74219 45.2467V49.0801C8.74219 49.4134 8.8533 49.6634 9.07552 49.8301C9.29774 49.9967 9.51997 50.0801 9.74219 50.0801H48.4089C48.7422 50.0801 48.9922 49.9967 49.1589 49.8301C49.3255 49.6634 49.4089 49.4134 49.4089 49.0801V45.2467C49.4089 44.9134 49.3255 44.6634 49.1589 44.4967C48.9922 44.3301 48.7422 44.2467 48.4089 44.2467H46.7422V29.5801C46.8533 29.469 46.9644 29.3579 47.0755 29.2467ZM39.4089 10.2467H42.9089V17.0801L39.4089 13.5801V10.2467ZM28.0755 6.91341C28.4089 6.69119 28.7422 6.58008 29.0755 6.58008C29.4089 6.58008 29.7422 6.69119 30.0755 6.91341L48.4089 25.2467L46.4089 27.2467L29.7422 10.5801C29.6311 10.3579 29.4366 10.2467 29.1589 10.2467C28.8811 10.2467 28.6311 10.3579 28.4089 10.5801L22.9089 15.9134C23.4644 14.5801 23.7422 13.1356 23.7422 11.5801V11.2467L28.0755 6.91341ZM9.74219 25.2467L11.9089 23.0801H12.2422C13.7977 23.0801 15.2422 22.8023 16.5755 22.2467L11.7422 27.2467L9.74219 25.2467ZM47.4089 48.0801H10.7422V46.2467H47.4089V48.0801ZM32.7422 44.2467H25.4089V32.7467H32.7422V44.2467ZM34.7422 44.2467V31.7467C34.7422 31.4134 34.6589 31.1634 34.4922 30.9967C34.3255 30.8301 34.0755 30.7467 33.7422 30.7467H24.4089C24.1866 30.7467 23.9644 30.8301 23.7422 30.9967C23.52 31.1634 23.4089 31.4134 23.4089 31.7467V44.2467H13.4089V28.2467L29.0755 12.5801L44.7422 28.2467V44.2467H34.7422ZM12.2422 14.9134C11.7977 14.9134 11.4644 14.8856 11.2422 14.8301C11.02 14.7745 10.7977 14.6634 10.5755 14.4967C10.3533 14.3301 10.1033 14.2745 9.82552 14.3301C9.54774 14.3856 9.32552 14.5245 9.15885 14.7467C8.99219 14.969 8.93663 15.1912 8.99219 15.4134C9.04774 15.6356 9.18663 15.8579 9.40885 16.0801C10.0755 16.4134 10.6866 16.6356 11.2422 16.7467V17.0801C11.2422 17.3023 11.3533 17.5245 11.5755 17.7467C11.7977 17.969 12.0477 18.0801 12.3255 18.0801C12.6033 18.0801 12.8255 17.969 12.9922 17.7467C13.1589 17.5245 13.2422 17.3023 13.2422 17.0801V16.5801C13.9089 16.469 14.4366 16.1634 14.8255 15.6634C15.2144 15.1634 15.4644 14.5801 15.5755 13.9134C15.6866 13.2467 15.5477 12.6079 15.1589 11.9967C14.77 11.3856 14.1866 10.9134 13.4089 10.5801C12.4089 10.2467 11.7422 9.91341 11.4089 9.58008C11.1866 9.46897 11.1311 9.24674 11.2422 8.91341C11.3533 8.58008 11.52 8.41341 11.7422 8.41341C12.2977 8.19119 12.8533 8.24674 13.4089 8.58008C13.6311 8.8023 13.8811 8.88563 14.1589 8.83008C14.4366 8.77452 14.6311 8.63563 14.7422 8.41341C14.8533 8.19119 14.9089 7.94119 14.9089 7.66341C14.9089 7.38563 14.77 7.16341 14.4922 6.99674C14.2144 6.83008 13.7977 6.63563 13.2422 6.41341V6.08008C13.2422 5.85785 13.1589 5.66341 12.9922 5.49674C12.8255 5.33008 12.6033 5.24674 12.3255 5.24674C12.0477 5.24674 11.7977 5.33008 11.5755 5.49674C11.3533 5.66341 11.2422 5.85785 11.2422 6.08008V6.41341C10.7977 6.63563 10.3811 6.94119 9.99219 7.33008C9.6033 7.71897 9.3533 8.19119 9.24219 8.74674C9.13108 9.74674 9.40885 10.5801 10.0755 11.2467C10.6311 11.5801 11.5755 11.969 12.9089 12.4134C13.4644 12.6356 13.6866 13.0801 13.5755 13.7467C13.5755 13.969 13.4366 14.219 13.1589 14.4967C12.8811 14.7745 12.5755 14.9134 12.2422 14.9134ZM3.90885 4.08008C3.90885 4.41341 3.99219 4.66341 4.15885 4.83008C4.32552 4.99674 4.54774 5.08008 4.82552 5.08008C5.1033 5.08008 5.32552 4.99674 5.49219 4.83008C5.65885 4.66341 5.74219 4.44119 5.74219 4.16341C5.74219 3.88563 5.65885 3.66341 5.49219 3.49674C5.32552 3.33008 5.1033 3.24674 4.82552 3.24674C4.54774 3.24674 4.32552 3.33008 4.15885 3.49674C3.99219 3.66341 3.90885 3.85785 3.90885 4.08008Z" fill="#1A1A1A"/>
</g>
<defs>
<clipPath id="clip0_1_512">
<rect width="50.02" height="50" fill="white" transform="matrix(1 0 0 -1 0.730469 50.0801)"/>
</clipPath>
</defs>
</svg>
