<svg width="51" height="51" viewBox="0 0 51 51" fill="none" xmlns="http://www.w3.org/2000/svg">
<g clip-path="url(#clip0_1_504)">
<path d="M25.7409 45.2467H10.2409C9.352 45.2467 8.62977 44.9412 8.07422 44.3301C7.51866 43.7189 7.24089 43.0245 7.24089 42.2467V21.4134L22.9076 7.58005C23.6853 6.91338 24.6298 6.58005 25.7409 6.58005C26.852 6.58005 27.7964 6.91338 28.5742 7.58005L48.4076 25.0801C48.6298 25.3023 48.9076 25.3856 49.2409 25.3301C49.5742 25.2745 49.852 25.1356 50.0742 24.9134C50.2964 24.6912 50.3798 24.4134 50.3242 24.0801C50.2687 23.7467 50.1298 23.4689 49.9076 23.2467L46.5742 20.4134V8.58005C46.5742 6.91338 45.9631 5.46894 44.7409 4.24672C43.5187 3.02449 42.0742 2.44116 40.4076 2.49672C38.7409 2.55227 37.3242 3.16338 36.1576 4.33005C34.9909 5.49672 34.352 6.91338 34.2409 8.58005V9.58005L30.0742 5.91338C28.852 4.80227 27.4076 4.24672 25.7409 4.24672C24.0742 4.24672 22.6298 4.80227 21.4076 5.91338L1.57422 23.2467C1.24089 23.4689 1.07422 23.7467 1.07422 24.0801C1.07422 24.4134 1.18533 24.6912 1.40755 24.9134C1.62977 25.1356 1.90755 25.2745 2.24089 25.3301C2.57422 25.3856 2.852 25.3023 3.07422 25.0801L4.90755 23.5801V42.2467C4.90755 43.6912 5.43533 44.9412 6.49089 45.9967C7.54644 47.0523 8.79644 47.5801 10.2409 47.5801H25.7409C26.0742 47.5801 26.352 47.4689 26.5742 47.2467C26.7964 47.0245 26.9076 46.7467 26.9076 46.4134C26.9076 46.0801 26.7964 45.8023 26.5742 45.5801C26.352 45.3578 26.0742 45.2467 25.7409 45.2467ZM36.5742 8.58005C36.6853 7.46894 37.102 6.55227 37.8242 5.83005C38.5464 5.10783 39.4353 4.77449 40.4909 4.83005C41.5464 4.88561 42.4353 5.27449 43.1576 5.99672C43.8798 6.71894 44.2409 7.58005 44.2409 8.58005V18.2467L36.5742 11.5801V8.58005ZM25.7409 14.2467C24.1853 14.2467 22.852 14.8023 21.7409 15.9134C20.6298 17.0245 20.0742 18.3578 20.0742 19.9134C20.0742 21.4689 20.6298 22.8023 21.7409 23.9134C22.852 25.0245 24.1853 25.5801 25.7409 25.5801C27.2964 25.5801 28.6298 25.0245 29.7409 23.9134C30.852 22.8023 31.4076 21.4689 31.4076 19.9134C31.4076 18.3578 30.852 17.0245 29.7409 15.9134C28.6298 14.8023 27.2964 14.2467 25.7409 14.2467ZM29.0742 19.9134C29.0742 20.9134 28.7409 21.7189 28.0742 22.3301C27.4076 22.9412 26.6298 23.2467 25.7409 23.2467C24.852 23.2467 24.0742 22.9412 23.4076 22.3301C22.7409 21.7189 22.4076 20.9412 22.4076 19.9967C22.4076 19.0523 22.7409 18.2467 23.4076 17.5801C24.0742 16.9134 24.852 16.5801 25.7409 16.5801C26.6298 16.5801 27.4076 16.9134 28.0742 17.5801C28.7409 18.2467 29.0742 19.0245 29.0742 19.9134ZM50.0742 45.7467L46.0742 41.5801C47.0742 40.1356 47.5742 38.5245 47.5742 36.7467C47.5742 34.5245 46.7687 32.6356 45.1576 31.0801C43.5464 29.5245 41.6298 28.7467 39.4076 28.7467C37.1853 28.7467 35.2687 29.5245 33.6576 31.0801C32.0464 32.6356 31.2409 34.5523 31.2409 36.8301C31.2409 39.1078 32.0464 41.0245 33.6576 42.5801C35.2687 44.1356 37.1853 44.9134 39.4076 44.9134C41.2964 44.9134 42.9631 44.3578 44.4076 43.2467L48.2409 47.2467C48.4631 47.4689 48.7409 47.6078 49.0742 47.6634C49.4076 47.7189 49.7131 47.6356 49.9909 47.4134C50.2687 47.1912 50.4076 46.9134 50.4076 46.5801C50.4076 46.2467 50.2964 45.9689 50.0742 45.7467ZM39.4076 42.5801C37.852 42.5801 36.4909 42.0245 35.3242 40.9134C34.1576 39.8023 33.5742 38.4412 33.5742 36.8301C33.5742 35.2189 34.1576 33.8578 35.3242 32.7467C36.4909 31.6356 37.8798 31.0801 39.4909 31.0801C41.102 31.0801 42.4631 31.6356 43.5742 32.7467C44.6853 33.8578 45.2409 35.2189 45.2409 36.8301C45.2409 38.4412 44.6853 39.8023 43.5742 40.9134C42.4631 42.0245 41.0742 42.5801 39.4076 42.5801Z" fill="#1A1A1A"/>
</g>
<defs>
<clipPath id="clip0_1_504">
<rect width="50.02" height="50" fill="white" transform="matrix(1 0 0 -1 0.730469 50.0801)"/>
</clipPath>
</defs>
</svg>
