<svg width="14" height="14" viewBox="0 0 14 14" fill="none" xmlns="http://www.w3.org/2000/svg">
<path d="M6.99888 4.00586C8.84458 4.00586 10.368 5.5293 10.368 7.375C10.368 9.25 8.84458 10.7441 6.99888 10.7441C5.12388 10.7441 3.62973 9.25 3.62973 7.375C3.62973 5.5293 5.12388 4.00586 6.99888 4.00586ZM6.99888 9.57227C8.20005 9.57227 9.16684 8.60547 9.16684 7.375C9.16684 6.17383 8.20005 5.20703 6.99888 5.20703C5.76841 5.20703 4.80161 6.17383 4.80161 7.375C4.80161 8.60547 5.7977 9.57227 6.99888 9.57227ZM11.2762 3.88867C11.2762 4.32812 10.9247 4.67969 10.4852 4.67969C10.0458 4.67969 9.69419 4.32812 9.69419 3.88867C9.69419 3.44922 10.0458 3.09766 10.4852 3.09766C10.9247 3.09766 11.2762 3.44922 11.2762 3.88867ZM13.5028 4.67969C13.5614 5.76367 13.5614 9.01562 13.5028 10.0996C13.4442 11.1543 13.2098 12.0625 12.4481 12.8535C11.6864 13.6152 10.7489 13.8496 9.69419 13.9082C8.6102 13.9668 5.35825 13.9668 4.27427 13.9082C3.21958 13.8496 2.31138 13.6152 1.52036 12.8535C0.758641 12.0625 0.524266 11.1543 0.465672 10.0996C0.407078 9.01562 0.407078 5.76367 0.465672 4.67969C0.524266 3.625 0.758641 2.6875 1.52036 1.92578C2.31138 1.16406 3.21958 0.929688 4.27427 0.871094C5.35825 0.8125 8.6102 0.8125 9.69419 0.871094C10.7489 0.929688 11.6864 1.16406 12.4481 1.92578C13.2098 2.6875 13.4442 3.625 13.5028 4.67969ZM12.0965 11.2422C12.4481 10.3926 12.3602 8.3418 12.3602 7.375C12.3602 6.4375 12.4481 4.38672 12.0965 3.50781C11.8622 2.95117 11.4227 2.48242 10.8661 2.27734C9.98716 1.92578 7.93638 2.01367 6.99888 2.01367C6.03208 2.01367 3.9813 1.92578 3.13169 2.27734C2.54575 2.51172 2.1063 2.95117 1.87192 3.50781C1.52036 4.38672 1.60825 6.4375 1.60825 7.375C1.60825 8.3418 1.52036 10.3926 1.87192 11.2422C2.1063 11.8281 2.54575 12.2676 3.13169 12.502C3.9813 12.8535 6.03208 12.7656 6.99888 12.7656C7.93638 12.7656 9.98716 12.8535 10.8661 12.502C11.4227 12.2676 11.8915 11.8281 12.0965 11.2422Z" fill="white"/>
<a href="https://www.figma.com/design/0zvQOIkcUwDFJp7ufXK3kh?node-id=2-2">
<rect fill="black" fill-opacity="0" x="-0.282375" y="-1.125" width="13.125" height="17.25"/>
</a>
</svg>
