<svg width="14" height="14" viewBox="0 0 14 14" fill="none" xmlns="http://www.w3.org/2000/svg">
<path d="M3.54941 14H0.824797V5.24023H3.54941V14ZM2.17245 4.06836C1.32284 4.06836 0.619719 3.33594 0.619719 2.45703C0.619719 1.60742 1.32284 0.904297 2.17245 0.904297C3.05136 0.904297 3.75448 1.60742 3.75448 2.45703C3.75448 3.33594 3.05136 4.06836 2.17245 4.06836ZM13.7154 14H11.0201V9.75195C11.0201 8.72656 10.9908 7.4375 9.58456 7.4375C8.17831 7.4375 7.97323 8.52148 7.97323 9.66406V14H5.24862V5.24023H7.85605V6.44141H7.88534C8.2662 5.76758 9.14511 5.03516 10.4635 5.03516C13.2174 5.03516 13.7447 6.85156 13.7447 9.19531V14H13.7154Z" fill="white"/>
<a href="https://www.figma.com/design/0zvQOIkcUwDFJp7ufXK3kh?node-id=2-2">
<rect fill="black" fill-opacity="0" x="0.178312" y="-1.125" width="13.125" height="17.25"/>
</a>
</svg>
