<svg width="21" height="21" viewBox="0 0 21 21" fill="none" xmlns="http://www.w3.org/2000/svg">
<g clip-path="url(#clip0_1_378)">
<path d="M20.7805 19.4967L15.8471 14.6301C16.4694 13.8745 16.9582 13.0412 17.3138 12.1301C17.6694 11.219 17.8471 10.2523 17.8471 9.23008C17.8471 7.71897 17.4694 6.31897 16.7138 5.03008C15.9582 3.74119 14.936 2.71897 13.6471 1.96341C12.3582 1.20785 10.9471 0.830077 9.4138 0.830077C7.88047 0.830077 6.46936 1.20785 5.18047 1.96341C3.89158 2.71897 2.86936 3.74119 2.1138 5.03008C1.35825 6.31897 0.980469 7.73008 0.980469 9.26341C0.980469 10.7967 1.35825 12.2079 2.1138 13.4967C2.86936 14.7856 3.89158 15.8079 5.18047 16.5634C6.46936 17.319 7.86936 17.6967 9.38047 17.6967C10.4027 17.6967 11.3694 17.519 12.2805 17.1634C13.1916 16.8079 14.0249 16.319 14.7805 15.6967L19.6471 20.6301C19.8249 20.7634 20.0138 20.8301 20.2138 20.8301C20.4138 20.8301 20.5916 20.7523 20.7471 20.5967C20.9027 20.4412 20.9805 20.2634 20.9805 20.0634C20.9805 19.8634 20.9138 19.6745 20.7805 19.4967ZM2.5138 9.23008C2.5138 7.98563 2.82491 6.84119 3.44714 5.79674C4.06936 4.7523 4.90269 3.91897 5.94714 3.29674C6.99158 2.67452 8.13602 2.36341 9.38047 2.36341C10.6249 2.36341 11.7694 2.67452 12.8138 3.29674C13.8582 3.91897 14.6916 4.7523 15.3138 5.79674C15.936 6.84119 16.2471 7.98563 16.2471 9.23008C16.2471 10.4745 15.936 11.619 15.3138 12.6634C14.6916 13.7079 13.8582 14.5412 12.8138 15.1634C11.7694 15.7856 10.6249 16.0967 9.38047 16.0967C8.13602 16.0967 6.99158 15.7856 5.94714 15.1634C4.90269 14.5412 4.06936 13.7079 3.44714 12.6634C2.82491 11.619 2.5138 10.4745 2.5138 9.23008Z" fill="#1A1A1A"/>
</g>
<defs>
<clipPath id="clip0_1_378">
<rect width="20" height="20" fill="white" transform="matrix(1 0 0 -1 0.980469 20.8301)"/>
</clipPath>
</defs>
</svg>
