<svg width="62" height="61" viewBox="0 0 62 61" fill="none" xmlns="http://www.w3.org/2000/svg">
<g clip-path="url(#clip0_2_378)">
<g clip-path="url(#clip1_2_378)">
<path d="M31 60.8994C47.5685 60.8994 61 47.468 61 30.8994C61 14.3309 47.5685 0.899414 31 0.899414C14.4315 0.899414 1 14.3309 1 30.8994C1 47.468 14.4315 60.8994 31 60.8994Z" fill="#E7C873"/>
<path fill-rule="evenodd" clip-rule="evenodd" d="M44.4202 20.0212C44.5102 19.4287 44.2577 18.8349 43.769 18.4862C43.2802 18.1387 42.6365 18.0949 42.1052 18.3737C37.854 20.6062 22.9827 28.4137 18.4152 30.8112C17.8515 31.1062 17.519 31.7087 17.5677 32.3424C17.6165 32.9762 18.0365 33.5212 18.639 33.7274C20.4177 34.3362 22.5915 35.0824 26.0002 36.2512L39.7502 23.3999L28.6227 37.1499C32.2577 38.3962 37.9415 40.3449 39.3677 40.8337C39.814 40.9874 40.3065 40.9337 40.7102 40.6899C41.114 40.4449 41.3877 40.0337 41.459 39.5662L44.4202 20.0212Z" fill="#1F4B43"/>
<path fill-rule="evenodd" clip-rule="evenodd" d="M27.04 37.9287V42.0162C27.04 42.6437 27.4088 43.2125 27.98 43.4687C28.5525 43.7262 29.2213 43.6237 29.69 43.2062L33.2375 40.0537L27.04 37.9287Z" fill="#1F4B43"/>
</g>
</g>
<defs>
<clipPath id="clip0_2_378">
<rect width="61" height="61" fill="white" transform="translate(0.5)"/>
</clipPath>
<clipPath id="clip1_2_378">
<rect width="61" height="61" fill="white" transform="translate(0.5)"/>
</clipPath>
</defs>
</svg>
