<svg width="17" height="17" viewBox="0 0 17 17" fill="none" xmlns="http://www.w3.org/2000/svg">
<g clip-path="url(#clip0_2_448)">
<path d="M8.69501 7.98333C9.76168 7.98333 10.6683 7.60111 11.415 6.83667C12.1617 6.07222 12.535 5.15667 12.535 4.09C12.535 3.02333 12.1617 2.11667 11.415 1.37C10.6683 0.623333 9.76168 0.25 8.69501 0.25C7.62834 0.25 6.72168 0.623333 5.97501 1.37C5.22834 2.11667 4.85501 3.02333 4.85501 4.09C4.85501 5.15667 5.22834 6.07222 5.97501 6.83667C6.72168 7.60111 7.62834 7.98333 8.69501 7.98333ZM6.61501 2.06333C7.1839 1.49444 7.86834 1.21 8.66834 1.21C9.46834 1.21 10.1617 1.49444 10.7483 2.06333C11.335 2.63222 11.6283 3.31667 11.6283 4.11667C11.6283 4.91667 11.3439 5.60111 10.775 6.17C10.2061 6.73889 9.51279 7.02333 8.69501 7.02333C7.87723 7.02333 7.1839 6.73889 6.61501 6.17C6.04612 5.60111 5.76168 4.91667 5.76168 4.11667C5.76168 3.31667 6.04612 2.63222 6.61501 2.06333ZM15.415 12.57C15.415 12.25 15.3795 11.9033 15.3083 11.53C15.2372 11.1567 15.1483 10.8189 15.0417 10.5167C14.935 10.2144 14.7928 9.90333 14.615 9.58333C14.4372 9.26333 14.2328 8.98778 14.0017 8.75667C13.7706 8.52556 13.4772 8.33889 13.1217 8.19667C12.7661 8.05444 12.375 7.98333 11.9483 7.98333C11.8061 7.98333 11.5928 8.07222 11.3083 8.25L10.6683 8.67667C10.455 8.81889 10.1706 8.94333 9.81501 9.05C9.45945 9.15667 9.11279 9.21 8.77501 9.21C8.43723 9.21 8.09057 9.15667 7.73501 9.05C7.37945 8.94333 7.11279 8.81889 6.93501 8.67667L6.24168 8.25C5.99279 8.07222 5.79723 7.98333 5.65501 7.98333C5.22834 7.98333 4.83723 8.05444 4.48168 8.19667C4.12612 8.33889 3.8239 8.52556 3.57501 8.75667C3.32612 8.98778 3.11279 9.26333 2.93501 9.58333C2.75723 9.90333 2.61501 10.2233 2.50834 10.5433C2.40168 10.8633 2.32168 11.2011 2.26834 11.5567C2.21501 11.9122 2.17945 12.2411 2.16168 12.5433C2.1439 12.8456 2.13501 13.1567 2.13501 13.4767C2.13501 14.33 2.39279 15.0056 2.90834 15.5033C3.4239 16.0011 4.10834 16.25 4.96168 16.25H12.6417C13.4595 16.25 14.135 16.0011 14.6683 15.5033C15.2017 15.0056 15.4683 14.33 15.4683 13.4767C15.4683 13.1567 15.4506 12.8544 15.415 12.57ZM14.0283 14.81C13.6728 15.13 13.2106 15.29 12.6417 15.29H4.96168C4.35723 15.29 3.88612 15.13 3.54834 14.81C3.21057 14.49 3.04168 14.0456 3.04168 13.4767L3.09501 12.6233C3.09501 12.3389 3.13057 12.0367 3.20168 11.7167C3.27279 11.3967 3.3439 11.1033 3.41501 10.8367C3.48612 10.57 3.59279 10.3122 3.73501 10.0633C3.87723 9.81444 4.03723 9.61 4.21501 9.45C4.39279 9.29 4.59723 9.16556 4.82834 9.07667C5.05945 8.98778 5.29945 8.94333 5.54834 8.94333L6.40168 9.47667C6.68612 9.65444 7.04168 9.80556 7.46834 9.93C7.89501 10.0544 8.33057 10.1167 8.77501 10.1167C9.21945 10.1167 9.6639 10.0544 10.1083 9.93C10.5528 9.80556 10.8995 9.65444 11.1483 9.47667L12.0017 8.94333C12.2861 8.94333 12.5439 8.98778 12.775 9.07667C13.0061 9.16556 13.2017 9.29 13.3617 9.45C13.5217 9.61 13.6728 9.81444 13.815 10.0633C13.9572 10.3122 14.0728 10.57 14.1617 10.8367C14.2506 11.1033 14.3217 11.3967 14.375 11.7167C14.4283 12.0367 14.4728 12.3389 14.5083 12.6233V13.4767C14.5083 14.0456 14.3483 14.49 14.0283 14.81Z" fill="white"/>
</g>
<defs>
<clipPath id="clip0_2_448">
<rect width="15.95" height="16" fill="white" transform="matrix(1 0 0 -1 0.800049 16.25)"/>
</clipPath>
</defs>
</svg>
