<svg width="21" height="21" viewBox="0 0 21 21" fill="none" xmlns="http://www.w3.org/2000/svg">
<g clip-path="url(#clip0_2018_20)">
<path d="M16.3862 19.4899H13.9862C13.8529 19.4899 13.7195 19.5566 13.5862 19.6899C13.4529 19.8233 13.3862 19.9677 13.3862 20.1233C13.3862 20.2788 13.4529 20.4122 13.5862 20.5233C13.7195 20.6344 13.8529 20.6899 13.9862 20.6899H16.3862C16.564 20.6899 16.7084 20.6344 16.8195 20.5233C16.9306 20.4122 16.9862 20.2788 16.9862 20.1233C16.9862 19.9677 16.9306 19.8233 16.8195 19.6899C16.7084 19.5566 16.564 19.4899 16.3862 19.4899ZM11.6529 19.4899H9.31953C9.14175 19.4899 8.99731 19.5566 8.8862 19.6899C8.77509 19.8233 8.71953 19.9677 8.71953 20.1233C8.71953 20.2788 8.77509 20.4122 8.8862 20.5233C8.99731 20.6344 9.14175 20.6899 9.31953 20.6899H11.6529C11.8306 20.6899 11.9751 20.6344 12.0862 20.5233C12.1973 20.4122 12.2529 20.2788 12.2529 20.1233C12.2529 19.9677 12.1973 19.8233 12.0862 19.6899C11.9751 19.5566 11.8306 19.4899 11.6529 19.4899ZM19.9195 8.88994C19.7862 8.88994 19.6529 8.9455 19.5195 9.05661C19.3862 9.16772 19.3195 9.31216 19.3195 9.48994V11.8233C19.3195 12.0011 19.3862 12.1455 19.5195 12.2566C19.6529 12.3677 19.7973 12.4233 19.9529 12.4233C20.1084 12.4233 20.2418 12.3677 20.3529 12.2566C20.464 12.1455 20.5195 12.0011 20.5195 11.8233V9.48994C20.5195 9.31216 20.464 9.16772 20.3529 9.05661C20.2418 8.9455 20.0973 8.88994 19.9195 8.88994ZM19.9195 13.5566C19.7862 13.5566 19.6529 13.6233 19.5195 13.7566C19.3862 13.8899 19.3195 14.0233 19.3195 14.1566V16.4899C19.3195 16.6677 19.3862 16.8122 19.5195 16.9233C19.6529 17.0344 19.7973 17.0899 19.9529 17.0899C20.1084 17.0899 20.2418 17.0344 20.3529 16.9233C20.464 16.8122 20.5195 16.6677 20.5195 16.4899V14.1566C20.5195 14.0233 20.464 13.8899 20.3529 13.7566C20.2418 13.6233 20.0973 13.5566 19.9195 13.5566ZM6.9862 19.4899H6.3862V18.9566C6.3862 18.7788 6.33064 18.6344 6.21953 18.5233C6.10842 18.4122 5.96398 18.3566 5.7862 18.3566C5.60842 18.3566 5.46398 18.4122 5.35286 18.5233C5.24175 18.6344 5.1862 18.7788 5.1862 18.9566V20.0899C5.1862 20.2677 5.24175 20.4122 5.35286 20.5233C5.46398 20.6344 5.60842 20.6899 5.7862 20.6899H6.9862C7.11953 20.6899 7.24175 20.6344 7.35286 20.5233C7.46398 20.4122 7.51953 20.2788 7.51953 20.1233C7.51953 19.9677 7.46398 19.8233 7.35286 19.6899C7.24175 19.5566 7.11953 19.4899 6.9862 19.4899ZM19.9195 5.35661H18.7862C18.6084 5.35661 18.464 5.41216 18.3529 5.52327C18.2418 5.63439 18.1862 5.77883 18.1862 5.95661C18.1862 6.13439 18.2418 6.27883 18.3529 6.38994C18.464 6.50105 18.6084 6.55661 18.7862 6.55661H19.3195V7.15661C19.3195 7.28994 19.3862 7.41216 19.5195 7.52327C19.6529 7.63439 19.7973 7.68994 19.9529 7.68994C20.1084 7.68994 20.2418 7.63439 20.3529 7.52327C20.464 7.41216 20.5195 7.28994 20.5195 7.15661V5.95661C20.5195 5.77883 20.464 5.63439 20.3529 5.52327C20.2418 5.41216 20.0973 5.35661 19.9195 5.35661ZM19.9195 18.3566C19.7862 18.3566 19.6529 18.4122 19.5195 18.5233C19.3862 18.6344 19.3195 18.7788 19.3195 18.9566V19.4899H18.7862C18.6084 19.4899 18.464 19.5566 18.3529 19.6899C18.2418 19.8233 18.1862 19.9677 18.1862 20.1233C18.1862 20.2788 18.2418 20.4122 18.3529 20.5233C18.464 20.6344 18.6084 20.6899 18.7862 20.6899H19.9195C20.0973 20.6899 20.2418 20.6344 20.3529 20.5233C20.464 20.4122 20.5195 20.2677 20.5195 20.0899V18.9566C20.5195 18.7788 20.464 18.6344 20.3529 18.5233C20.2418 18.4122 20.0973 18.3566 19.9195 18.3566ZM16.3862 5.35661H15.7862V1.28994C15.7862 1.11216 15.7195 0.967718 15.5862 0.856607C15.4529 0.745496 15.3195 0.68994 15.1862 0.68994H1.11953C0.941753 0.68994 0.797309 0.745496 0.686198 0.856607C0.575087 0.967718 0.519531 1.11216 0.519531 1.28994V15.3566C0.519531 15.4899 0.575087 15.6233 0.686198 15.7566C0.797309 15.8899 0.941753 15.9566 1.11953 15.9566H5.1862V16.4899C5.1862 16.6677 5.24175 16.8122 5.35286 16.9233C5.46398 17.0344 5.60842 17.0899 5.7862 17.0899C5.96398 17.0899 6.10842 17.0344 6.21953 16.9233C6.33064 16.8122 6.3862 16.6677 6.3862 16.4899V6.55661H16.3862C16.564 6.55661 16.7084 6.50105 16.8195 6.38994C16.9306 6.27883 16.9862 6.13439 16.9862 5.95661C16.9862 5.77883 16.9306 5.63439 16.8195 5.52327C16.7084 5.41216 16.564 5.35661 16.3862 5.35661ZM14.5862 5.35661H5.7862C5.60842 5.35661 5.46398 5.41216 5.35286 5.52327C5.24175 5.63439 5.1862 5.77883 5.1862 5.95661V14.7566H1.71953V1.88994H14.5862V5.35661Z" fill="#1A1A1A"/>
</g>
<defs>
<clipPath id="clip0_2018_20">
<rect width="20" height="20" fill="white" transform="matrix(1 0 0 -1 0.519531 20.6899)"/>
</clipPath>
</defs>
</svg>
