<svg xmlns="http://www.w3.org/2000/svg" width="183" height="47" fill="none">
    <g transform="translate(0 11.75)">
        <path
            d="M 0 3.817 L 16.885 3.817 L 0.276 20.523 L 2.96 23.223 L 19.565 6.516 L 19.565 23.5 L 19.673 23.5 L 23.362 19.791 L 23.362 4.16 L 19.227 0 L 3.685 0 L 0 3.706 Z M 46.003 13.281 L 49.217 13.281 L 49.217 16.286 L 46.003 16.286 L 46.003 20.563 L 42.435 20.563 L 42.435 16.286 L 33.096 16.286 L 33.096 13.663 L 42.764 2.131 L 46.003 2.131 Z M 37.651 13.281 L 42.435 13.281 L 42.435 7.401 Z M 58.181 8.037 C 59.43 8.037 60.544 8.283 61.522 8.775 C 62.5 9.251 63.312 10.015 63.85 10.965 C 64.425 11.932 64.711 13.094 64.711 14.453 C 64.711 16.473 64.078 18.051 62.813 19.188 C 61.547 20.308 59.767 20.868 57.473 20.868 C 55.886 20.868 54.553 20.605 53.474 20.079 C 52.411 19.553 51.601 18.857 51.044 17.991 C 50.506 17.132 50.185 16.153 50.108 15.14 L 53.752 15.14 C 54.293 17.108 55.524 18.093 57.447 18.093 C 58.628 18.093 59.523 17.762 60.13 17.1 C 60.754 16.438 61.067 15.547 61.067 14.427 C 61.067 13.29 60.755 12.407 60.13 11.779 C 59.506 11.134 58.62 10.812 57.473 10.812 C 55.954 10.812 54.79 11.448 53.98 12.721 L 50.69 12.39 L 51.93 2.131 L 63.648 2.131 L 63.648 5.135 L 54.891 5.135 L 54.334 9.361 C 55.246 8.479 56.528 8.037 58.181 8.037 Z M 78.758 2.131 C 81.307 2.131 83.61 2.742 85.667 3.964 C 87.743 5.168 88.78 7.63 88.78 11.347 C 88.78 15.064 87.743 17.533 85.667 18.755 C 83.61 19.959 81.307 20.563 78.758 20.563 L 72.583 20.563 L 72.583 2.131 Z M 78.632 17.355 C 79.796 17.338 80.833 17.202 81.745 16.947 C 82.673 16.676 83.458 16.098 84.098 15.216 C 84.756 14.334 85.085 13.043 85.085 11.347 C 85.085 9.649 84.756 8.36 84.098 7.477 C 83.458 6.595 82.673 6.018 81.745 5.746 C 80.833 5.475 79.796 5.338 78.632 5.338 L 76.151 5.338 L 76.151 17.355 Z M 97.155 6.56 C 98.622 6.56 99.879 6.891 100.925 7.553 C 101.988 8.199 102.773 9.123 103.279 10.328 C 103.802 11.533 104.021 12.95 103.937 14.58 L 93.713 14.58 C 93.83 15.733 94.193 16.608 94.801 17.202 C 95.408 17.795 96.201 18.093 97.18 18.093 C 98.04 18.093 98.731 17.881 99.255 17.457 C 99.794 17.033 100.157 16.497 100.343 15.853 L 103.861 15.853 C 103.558 17.449 102.806 18.687 101.609 19.57 C 100.427 20.435 98.951 20.868 97.18 20.868 C 95.728 20.868 94.472 20.571 93.409 19.977 C 92.37 19.408 91.524 18.539 90.979 17.482 C 90.422 16.395 90.144 15.14 90.144 13.714 C 90.144 12.305 90.43 11.058 91.005 9.972 C 91.558 8.907 92.412 8.03 93.459 7.451 C 94.522 6.857 95.754 6.56 97.155 6.56 Z M 100.419 12.339 C 100.318 11.423 99.989 10.685 99.432 10.125 C 98.892 9.565 98.124 9.284 97.129 9.284 C 96.218 9.284 95.475 9.539 94.902 10.048 C 94.328 10.557 93.948 11.321 93.763 12.339 Z M 118.779 6.866 L 118.779 20.002 C 118.779 21.785 118.214 23.219 117.083 24.305 C 115.953 25.407 114.299 25.96 112.123 25.96 C 110.233 25.96 108.731 25.535 107.618 24.687 C 106.504 23.854 105.846 22.734 105.644 21.326 L 109.111 21.326 C 109.516 22.582 110.52 23.21 112.123 23.21 C 113.236 23.21 114.046 22.93 114.552 22.37 C 115.058 21.827 115.311 21.021 115.311 19.952 L 115.311 18.119 C 114.367 19.577 112.941 20.308 111.034 20.308 C 109.837 20.308 108.782 20.036 107.871 19.493 C 106.977 18.933 106.276 18.135 105.77 17.1 C 105.281 16.065 105.036 14.843 105.036 13.434 C 105.036 12.025 105.281 10.803 105.77 9.768 C 106.276 8.733 106.977 7.944 107.871 7.401 C 108.782 6.84 109.837 6.56 111.034 6.56 C 112.958 6.56 114.384 7.29 115.311 8.75 L 115.311 6.866 Z M 111.971 17.558 C 113.102 17.558 113.97 17.177 114.577 16.413 C 115.185 15.649 115.489 14.656 115.489 13.434 C 115.489 12.212 115.185 11.219 114.577 10.456 C 113.97 9.692 113.102 9.31 111.971 9.31 C 110.824 9.31 109.964 9.7 109.389 10.481 C 108.832 11.245 108.554 12.229 108.554 13.434 C 108.554 14.639 108.832 15.631 109.389 16.413 C 109.964 17.177 110.824 17.558 111.971 17.558 Z M 128.241 6.713 C 128.528 6.713 128.815 6.739 129.102 6.79 L 129.102 10.277 C 128.784 10.225 128.462 10.2 128.14 10.201 C 127.077 10.201 126.284 10.456 125.761 10.965 C 125.254 11.429 124.908 12.045 124.774 12.721 C 124.639 13.383 124.571 14.156 124.571 15.038 L 124.571 20.563 L 121.104 20.563 L 121.104 6.866 L 124.521 6.866 L 124.521 9.208 C 125.263 7.544 126.504 6.713 128.241 6.713 Z M 136.861 6.56 C 138.329 6.56 139.586 6.891 140.632 7.553 C 141.695 8.199 142.479 9.123 142.985 10.328 C 143.509 11.533 143.728 12.95 143.643 14.58 L 133.419 14.58 C 133.537 15.733 133.9 16.608 134.507 17.202 C 135.114 17.795 135.908 18.093 136.886 18.093 C 137.746 18.093 138.439 17.881 138.961 17.457 C 139.487 17.054 139.869 16.492 140.05 15.853 L 143.567 15.853 C 143.264 17.449 142.513 18.687 141.315 19.57 C 140.134 20.435 138.658 20.868 136.886 20.868 C 135.436 20.868 134.178 20.571 133.115 19.977 C 132.076 19.408 131.23 18.539 130.685 17.482 C 130.129 16.395 129.85 15.14 129.85 13.714 C 129.85 12.305 130.137 11.058 130.711 9.972 C 131.264 8.907 132.118 8.03 133.166 7.451 C 134.229 6.857 135.461 6.56 136.861 6.56 Z M 140.125 12.339 C 140.024 11.423 139.695 10.685 139.138 10.125 C 138.599 9.565 137.831 9.284 136.835 9.284 C 135.924 9.284 135.183 9.539 134.608 10.048 C 134.035 10.557 133.655 11.321 133.469 12.339 Z M 151.703 6.56 C 153.171 6.56 154.428 6.891 155.474 7.553 C 156.537 8.199 157.322 9.123 157.828 10.328 C 158.35 11.533 158.57 12.95 158.486 14.58 L 148.261 14.58 C 148.379 15.733 148.742 16.608 149.349 17.202 C 149.957 17.795 150.749 18.093 151.728 18.093 C 152.589 18.093 153.28 17.881 153.804 17.457 C 154.343 17.033 154.706 16.497 154.892 15.853 L 158.41 15.853 C 158.106 17.449 157.355 18.687 156.157 19.57 C 154.976 20.435 153.5 20.868 151.728 20.868 C 150.277 20.868 149.02 20.571 147.957 19.977 C 146.918 19.408 146.072 18.539 145.528 17.482 C 144.971 16.395 144.693 15.14 144.693 13.714 C 144.693 12.305 144.979 11.058 145.553 9.972 C 146.106 8.906 146.96 8.03 148.008 7.451 C 149.071 6.857 150.302 6.56 151.703 6.56 Z M 154.968 12.339 C 154.867 11.423 154.538 10.685 153.981 10.125 C 153.441 9.565 152.673 9.284 151.678 9.284 C 150.767 9.284 150.024 9.539 149.451 10.048 C 148.876 10.557 148.497 11.321 148.312 12.339 Z M 166.059 20.868 C 164 20.868 162.406 20.41 161.276 19.493 C 160.145 18.577 159.504 17.422 159.352 16.031 L 162.819 16.031 C 163.275 17.49 164.38 18.22 166.135 18.22 C 166.945 18.22 167.577 18.076 168.033 17.788 C 168.488 17.482 168.716 17.092 168.716 16.616 C 168.716 16.107 168.463 15.751 167.957 15.547 C 167.467 15.327 166.624 15.107 165.426 14.885 C 164.313 14.699 163.36 14.478 162.566 14.223 C 161.794 13.965 161.092 13.529 160.516 12.95 C 159.943 12.373 159.656 11.601 159.656 10.634 C 159.656 9.259 160.229 8.241 161.377 7.579 C 162.524 6.9 163.924 6.56 165.578 6.56 C 167.4 6.56 168.852 6.959 169.931 7.757 C 171.028 8.555 171.677 9.624 171.88 10.965 L 168.413 10.965 C 168.21 10.405 167.881 9.972 167.426 9.666 C 166.987 9.361 166.346 9.208 165.502 9.208 C 164.777 9.208 164.195 9.327 163.756 9.565 C 163.334 9.802 163.123 10.125 163.123 10.532 C 163.123 10.888 163.291 11.185 163.629 11.423 C 163.984 11.643 164.372 11.805 164.793 11.907 C 165.215 12.009 165.941 12.161 166.97 12.365 C 168.792 12.705 170.117 13.154 170.943 13.714 C 171.77 14.274 172.184 15.123 172.184 16.26 C 172.184 17.651 171.652 18.772 170.589 19.621 C 169.526 20.453 168.016 20.868 166.059 20.868 Z M 178.151 10.328 C 177.392 10.328 176.684 10.159 176.026 9.819 C 175.387 9.466 174.854 8.947 174.482 8.317 C 174.11 7.672 173.925 6.926 173.925 6.077 C 173.925 5.228 174.11 4.481 174.482 3.836 C 174.85 3.21 175.385 2.698 176.026 2.36 C 176.684 2.003 177.392 1.825 178.151 1.825 C 178.911 1.825 179.611 2.003 180.252 2.36 C 180.908 2.698 181.453 3.219 181.821 3.862 C 182.209 4.507 182.403 5.245 182.403 6.077 C 182.403 6.909 182.209 7.655 181.821 8.317 C 181.444 8.952 180.901 9.471 180.252 9.819 C 179.604 10.16 178.883 10.335 178.151 10.328 Z M 178.151 8.19 C 178.725 8.19 179.18 8.004 179.518 7.63 C 179.872 7.239 180.05 6.721 180.05 6.077 C 180.05 5.431 179.872 4.922 179.518 4.549 C 179.18 4.176 178.725 3.989 178.151 3.989 C 177.595 3.989 177.139 4.175 176.785 4.549 C 176.447 4.922 176.279 5.431 176.279 6.077 C 176.279 6.722 176.447 7.239 176.785 7.63 C 177.139 8.003 177.595 8.19 178.151 8.19 Z"
            fill="rgb(255,255,255)"></path>
        <path
            d="M 178.167 4.181 C 177.122 4.181 176.274 5.033 176.274 6.085 C 176.274 7.136 177.121 7.989 178.166 7.989 C 179.212 7.989 180.06 7.137 180.06 6.085 C 180.06 5.033 179.213 4.18 178.167 4.18 Z M 178.167 10.35 C 180.508 10.35 182.406 8.441 182.406 6.086 C 182.406 3.73 180.508 1.821 178.167 1.821 C 175.826 1.821 173.928 3.73 173.928 6.086 C 173.928 8.441 175.826 10.35 178.167 10.35 Z"
            fill="rgb(255,255,255)"></path>
    </g>
</svg>