<svg xmlns="http://www.w3.org/2000/svg" width="183" height="47" fill="none">
    <g transform="translate(0 4.592)">
        <path
            d="M 24.306 2.294 C 21.265 -0.765 16.335 -0.765 13.294 2.294 L 2.281 13.372 C 0.82 14.841 0 16.834 0 18.911 C 0 20.989 0.82 22.982 2.281 24.451 L 13.294 35.528 C 14.754 36.997 16.735 37.822 18.801 37.822 C 20.866 37.822 22.847 36.997 24.307 35.528 L 29.562 30.242 C 25.187 28.544 22.084 24.275 22.084 19.276 C 22.084 14.078 25.439 9.668 30.09 8.119 C 29.999 8.023 29.906 7.927 29.813 7.833 Z"
            fill="rgb(255,255,255)"></path>
        <path
            d="M 29.563 30.246 C 30.866 30.752 32.283 31.03 33.764 31.03 C 40.216 31.03 45.445 25.769 45.445 19.28 C 45.445 12.791 40.216 7.53 33.764 7.53 C 32.481 7.53 31.246 7.737 30.091 8.122 C 35.895 14.259 35.802 23.969 29.814 29.993 Z"
            fill="rgb(255,255,255)" opacity="0.7"></path>
        <path
            d="M 67.756 27.72 L 66.337 23.649 L 59.004 23.649 L 57.559 27.72 L 53.538 27.72 L 60.634 8.738 L 64.996 8.738 L 72.04 27.72 Z M 62.71 13.127 L 60.134 20.45 L 65.233 20.45 Z M 76.652 27.72 L 72.973 27.72 L 72.973 8.738 L 76.652 8.738 Z M 92.884 20.661 C 92.884 24.838 90.441 27.984 86.656 27.984 C 85.001 27.984 83.581 27.271 82.529 25.896 L 82.529 32.822 L 78.876 32.822 L 78.876 13.602 L 82.24 13.602 L 82.24 15.665 C 83.318 14.158 84.868 13.338 86.656 13.338 C 90.44 13.338 92.885 16.511 92.885 20.661 Z M 89.127 20.661 C 89.127 18.017 87.628 16.59 85.841 16.59 C 84.054 16.59 82.556 17.991 82.556 20.661 C 82.556 23.331 84.055 24.706 85.841 24.706 C 87.627 24.706 89.126 23.358 89.126 20.661 Z M 97.827 20.027 L 97.827 27.72 L 94.174 27.72 L 94.174 8.738 L 97.827 8.738 L 97.827 15.453 C 98.8 14.158 100.009 13.338 101.849 13.338 C 104.661 13.338 106.606 15.189 106.606 18.599 L 106.606 27.72 L 102.979 27.72 L 102.979 19.842 C 102.979 17.753 102.164 16.59 100.508 16.59 C 99.063 16.59 97.827 17.753 97.827 20.027 Z M 117.06 27.72 L 117.06 25.975 C 116.14 27.297 114.747 27.984 112.829 27.984 C 109.911 27.984 107.966 26.266 107.966 23.622 C 107.966 20.873 110.174 19.392 114.274 19.392 C 115.063 19.392 115.746 19.445 116.613 19.551 L 116.613 18.705 C 116.613 17.119 115.72 16.193 114.195 16.193 C 112.618 16.193 111.672 17.119 111.541 18.705 L 108.255 18.705 C 108.466 15.453 110.805 13.338 114.195 13.338 C 117.875 13.338 120.03 15.374 120.03 18.837 L 120.03 27.72 Z M 111.409 23.516 C 111.409 24.706 112.25 25.446 113.617 25.446 C 115.483 25.446 116.613 24.415 116.613 22.776 L 116.613 21.772 C 115.746 21.639 115.141 21.587 114.511 21.587 C 112.434 21.587 111.409 22.247 111.409 23.516 Z M 135.456 27.72 L 131.935 14.448 L 128.413 27.72 L 124.365 27.72 L 119.529 8.738 L 123.419 8.738 L 126.468 21.613 L 129.937 8.738 L 134.011 8.738 L 137.375 21.666 L 140.45 8.738 L 144.366 8.738 L 139.504 27.72 Z M 152.558 27.72 L 152.558 25.975 C 151.638 27.297 150.245 27.984 148.327 27.984 C 145.409 27.984 143.464 26.266 143.464 23.622 C 143.464 20.873 145.672 19.392 149.772 19.392 C 150.561 19.392 151.244 19.445 152.111 19.551 L 152.111 18.705 C 152.111 17.119 151.218 16.193 149.693 16.193 C 148.116 16.193 147.17 17.119 147.039 18.705 L 143.754 18.705 C 143.964 15.453 146.303 13.338 149.693 13.338 C 153.373 13.338 155.528 15.374 155.528 18.837 L 155.528 27.72 Z M 146.907 23.516 C 146.907 24.706 147.748 25.446 149.115 25.446 C 150.981 25.446 152.111 24.415 152.111 22.776 L 152.111 21.772 C 151.244 21.639 150.639 21.587 150.009 21.587 C 147.932 21.587 146.907 22.247 146.907 23.516 Z M 169.779 13.602 L 164.627 27.72 L 160.632 27.72 L 155.455 13.602 L 159.397 13.602 L 162.735 23.543 L 166.099 13.602 Z M 175.94 27.958 C 171.735 27.958 168.923 25.023 168.923 20.608 C 168.923 16.405 171.84 13.338 175.888 13.338 C 180.329 13.338 183.273 16.96 182.616 21.56 L 172.655 21.56 C 172.891 23.86 173.995 25.129 175.861 25.129 C 177.465 25.129 178.542 24.336 178.963 22.935 L 182.59 22.935 C 181.801 26.134 179.357 27.958 175.94 27.958 Z M 175.809 16.035 C 174.1 16.035 173.023 17.145 172.708 19.234 L 178.752 19.234 C 178.647 17.277 177.543 16.035 175.809 16.035 Z"
            fill="rgb(255,255,255)"></path>
    </g>
</svg>