<svg xmlns="http://www.w3.org/2000/svg" width="163" height="51" fill="none">
    <g transform="translate(0 4.918)">
        <path
            d="M 24.987 31.971 C 21.597 30.715 18.11 30.521 14.914 31.39 C 12.687 31.971 10.557 33.13 8.619 34.578 L 7.264 35.737 L 6.876 36.124 L 7.747 36.896 C 7.844 36.896 7.844 36.993 7.941 37.09 C 8.135 37.283 8.329 37.38 8.619 37.573 L 9.2 37.959 L 9.781 37.476 C 9.878 37.38 10.072 37.186 10.266 37.09 C 12.009 35.64 13.946 34.675 15.979 34.192 C 18.595 33.515 21.403 33.612 24.212 34.675 C 26.536 35.544 31.282 36.606 36.997 34.192 L 37.19 34.096 L 37.48 33.806 C 37.48 33.71 37.576 33.71 37.674 33.612 C 38.158 33.033 38.643 32.454 39.029 31.777 L 40.967 28.783 L 37.867 30.521 C 33.316 33.033 29.151 33.515 24.987 31.971 Z M 11.719 21.539 C 14.333 20.863 17.142 20.96 19.951 22.022 C 23.05 23.181 30.991 24.823 39.902 16.806 L 41.839 14.874 L 41.645 14.392 C 41.549 14.005 41.354 13.522 41.161 13.039 L 40.676 11.687 L 39.708 12.653 C 39.612 12.846 39.417 12.942 39.223 13.136 C 34.962 17.482 28.377 21.926 20.822 19.221 C 17.432 17.966 13.947 17.772 10.751 18.642 C 7.65 19.511 4.939 21.152 2.422 23.471 L 2.422 23.375 L 0.968 24.919 C 0.968 25.014 0.873 25.014 0.775 25.112 L 0.485 25.401 L 0.581 25.788 C 0.678 26.271 0.871 26.755 0.968 27.237 L 1.55 28.782 L 2.519 27.526 C 2.614 27.334 2.808 27.237 2.905 27.044 C 4.94 25.21 7.748 22.6 11.719 21.538 Z"
            fill="rgb(255,255,255)"></path>
        <path
            d="M 2.325 19.801 C 4.551 17.482 7.07 16.033 9.782 15.261 C 12.397 14.585 15.205 14.682 18.014 15.744 C 26.73 18.932 34.284 13.715 37.577 10.914 L 38.837 9.658 L 39.32 9.272 L 38.934 8.692 C 38.643 8.402 38.449 8.017 38.159 7.63 L 37.577 6.857 L 36.9 7.533 L 36.512 7.92 C 32.444 11.783 26.149 15.744 18.983 13.039 C 15.593 11.783 12.106 11.59 8.91 12.46 C 6.876 13.039 4.939 14.005 3.002 15.261 L 0.969 16.902 L 0.486 17.386 L 0.292 17.579 L 0.292 17.868 C 0.195 18.545 0.195 19.221 0.098 19.801 L 0 22.215 L 1.646 20.476 C 1.84 20.283 2.034 19.993 2.325 19.801 Z M 27.795 38.538 C 27.505 38.442 27.312 38.346 27.022 38.249 C 23.632 36.993 20.145 36.8 16.949 37.67 C 16.271 37.862 15.594 38.056 14.915 38.346 L 12.59 39.408 L 12.01 39.698 L 13.947 40.374 L 15.69 40.953 L 15.98 41.05 L 16.271 40.954 C 16.562 40.856 16.852 40.664 17.143 40.664 C 17.337 40.664 17.53 40.567 17.723 40.471 C 20.048 39.89 22.566 39.89 25.278 40.76 C 25.569 40.856 25.763 40.953 26.053 41.05 L 26.537 41.243 L 26.828 41.147 C 27.505 40.953 28.28 40.761 28.862 40.471 L 31.573 39.504 L 28.765 38.829 C 28.474 38.733 28.087 38.637 27.795 38.54 Z M 42.614 18.545 L 41.161 19.994 L 40.581 20.573 C 36.61 24.34 30.218 28.396 23.051 25.692 C 19.661 24.436 16.174 24.243 12.978 25.113 C 9.976 25.982 7.265 27.527 4.843 29.846 L 3.584 31.198 L 3.197 31.681 L 3.584 32.261 C 3.875 32.646 4.069 32.936 4.263 33.323 L 4.843 34.192 L 5.521 33.323 L 5.908 32.936 C 8.233 30.426 10.751 28.88 13.657 28.107 C 16.271 27.431 19.08 27.527 21.889 28.59 C 24.31 29.459 26.828 29.749 29.346 29.459 C 33.801 28.976 38.256 26.465 41.549 23.664 C 41.743 23.471 41.937 23.374 42.13 23.181 L 42.42 22.892 L 42.42 22.6 C 42.42 22.021 42.517 21.345 42.517 20.765 Z"
            fill="rgb(255,255,255)"></path>
        <path
            d="M 5.81 9.659 C 6.391 9.369 7.07 9.176 7.65 8.982 C 10.266 8.307 13.073 8.403 15.882 9.466 C 17.722 10.142 19.563 10.432 21.597 10.432 C 25.665 10.432 29.732 8.982 33.509 6.182 L 35.446 4.636 L 34.574 3.96 C 34.261 3.649 33.902 3.389 33.509 3.187 L 32.928 2.801 L 32.443 3.187 C 32.249 3.283 32.154 3.476 31.96 3.573 C 26.827 7.437 21.694 8.5 16.851 6.665 C 13.364 5.409 9.878 5.118 6.392 6.181 C 6.101 6.276 5.812 6.374 5.424 6.471 L 5.23 6.566 L 4.94 6.856 C 4.94 6.953 4.843 6.953 4.746 7.05 C 4.358 7.63 3.875 8.112 3.487 8.692 L 1.647 11.493 L 4.649 9.947 C 5.133 9.947 5.521 9.755 5.81 9.658 Z M 13.753 3.091 L 14.044 3.186 C 15.302 3.67 17.24 4.153 19.66 4.153 C 22.179 4.153 24.599 3.573 27.022 2.607 L 30.022 1.159 L 27.988 0.482 C 27.407 0.289 26.827 0.097 26.148 0 L 25.857 0 L 25.568 0.096 C 25.277 0.192 24.986 0.386 24.695 0.482 C 21.79 1.545 18.885 1.738 16.076 0.966 L 15.205 0.676 L 14.914 0.58 L 14.623 0.676 C 14.043 0.869 13.462 1.063 12.88 1.351 L 10.654 2.318 L 12.978 2.994 C 13.171 2.897 13.462 2.994 13.753 3.09 Z M 141.424 9.92 C 140.983 9.48 140.427 9.26 139.756 9.26 C 139.085 9.26 138.519 9.48 138.059 9.92 C 137.618 10.34 137.397 10.876 137.397 11.526 C 137.397 12.176 137.618 12.721 138.059 13.161 C 138.519 13.601 139.085 13.821 139.756 13.821 C 140.427 13.821 140.983 13.601 141.424 13.161 C 141.865 12.721 142.086 12.176 142.086 11.526 C 142.086 10.876 141.865 10.34 141.424 9.92 Z M 108.867 26.013 C 108.138 25.401 107.736 24.598 107.659 23.603 L 103.43 23.546 C 103.45 24.827 103.814 25.984 104.523 27.017 C 105.233 28.05 106.211 28.863 107.457 29.456 C 108.723 30.029 110.161 30.316 111.772 30.316 C 113.268 30.316 114.61 30.039 115.799 29.484 C 117.007 28.93 117.947 28.174 118.618 27.218 C 119.289 26.243 119.625 25.143 119.625 23.919 C 119.625 22.657 119.337 21.653 118.762 20.907 C 118.204 20.14 117.434 19.552 116.547 19.214 C 115.627 18.832 114.495 18.516 113.153 18.268 C 111.83 18.019 110.852 17.809 110.219 17.636 C 109.586 17.445 109.097 17.206 108.752 16.919 C 108.407 16.613 108.234 16.192 108.234 15.657 C 108.234 14.911 108.522 14.337 109.097 13.936 C 109.672 13.534 110.439 13.333 111.398 13.333 C 112.434 13.333 113.268 13.601 113.901 14.137 C 114.534 14.653 114.898 15.341 114.994 16.202 L 119.222 16.202 C 119.216 15.037 118.844 13.903 118.158 12.96 C 117.487 12.004 116.557 11.258 115.368 10.723 C 114.198 10.168 112.875 9.891 111.398 9.891 C 109.96 9.891 108.666 10.159 107.515 10.694 C 106.384 11.21 105.492 11.928 104.841 12.846 C 104.207 13.764 103.891 14.806 103.891 15.973 C 103.891 17.254 104.169 18.287 104.725 19.071 C 105.299 19.835 106.062 20.438 106.94 20.821 C 107.841 21.203 108.953 21.519 110.276 21.767 C 111.619 22.035 112.606 22.265 113.239 22.456 C 113.891 22.628 114.39 22.877 114.735 23.202 C 115.099 23.508 115.281 23.929 115.281 24.464 C 115.281 25.229 114.955 25.831 114.303 26.271 C 113.671 26.692 112.846 26.902 111.83 26.902 C 110.602 26.902 109.615 26.606 108.867 26.013 Z"
            fill="rgb(255,255,255)"></path>
        <path
            d="M 60.632 10.063 L 53.268 30.144 L 57.727 30.144 L 59.28 25.755 L 66.931 25.755 L 68.485 30.144 L 73.116 30.144 L 65.809 10.063 Z M 60.43 22.284 L 63.077 14.653 L 65.752 22.284 Z"
            fill="rgb(255,255,255)"></path>
        <path
            d="M 129.75 15.227 C 131.495 15.227 132.924 15.762 134.036 16.833 C 135.167 17.904 135.733 19.673 135.733 22.14 L 135.733 30.144 L 131.677 30.144 L 131.677 22.312 C 131.677 21.088 131.428 20.161 130.929 19.53 C 130.431 18.88 129.683 18.554 128.686 18.554 C 127.65 18.554 126.835 18.908 126.241 19.616 C 125.666 20.323 125.378 21.308 125.378 22.571 L 125.378 30.144 L 121.322 30.144 L 121.322 10.063 L 125.378 10.063 L 125.378 17.206 C 126.471 15.886 127.928 15.227 129.75 15.227 Z M 149.026 14.71 C 149.026 14.29 149.122 13.984 149.313 13.792 C 149.505 13.601 149.812 13.505 150.234 13.505 L 152.736 13.505 L 152.736 10.063 L 149.428 10.063 C 147.952 10.063 146.84 10.417 146.092 11.124 C 145.344 11.813 144.97 12.807 144.97 14.108 L 144.97 15.399 L 142.525 15.399 L 142.525 18.813 L 144.97 18.813 L 144.97 30.144 L 149.026 30.144 L 149.026 18.813 L 155.434 18.813 L 155.434 30.144 L 159.49 30.144 L 159.49 18.813 L 162.683 18.813 L 162.683 15.399 L 159.49 15.399 L 159.49 10.063 L 155.434 10.063 L 155.434 15.399 L 149.026 15.399 Z M 141.77 15.399 L 137.714 15.399 L 137.714 30.144 L 141.77 30.144 Z M 78.128 10.063 L 74.072 10.063 L 74.072 30.144 L 78.127 30.144 Z M 81.327 15.399 L 78.883 15.399 L 78.883 18.813 L 81.327 18.813 L 81.327 30.144 L 85.384 30.144 L 85.384 18.813 L 88.576 18.813 L 88.576 15.399 L 85.384 15.399 L 85.384 10.063 L 81.327 10.063 Z M 93.834 28.308 L 97.516 28.308 L 97.516 23.833 L 102.001 23.833 L 102.001 20.161 L 97.516 20.161 L 97.516 15.686 L 93.832 15.686 L 93.832 20.161 L 89.344 20.161 L 89.344 23.833 L 93.832 23.833 L 93.832 28.308 Z"
            fill="rgb(255,255,255)"></path>
    </g>
</svg>