<svg xmlns="http://www.w3.org/2000/svg" width="165" height="51" fill="none">
    <g transform="translate(0 4.25)">
        <path
            d="M 21.29 42.5 C 33.049 42.5 42.581 32.986 42.581 21.25 C 42.581 9.514 33.049 0 21.29 0 C 9.532 0 0 9.514 0 21.25 C 0 32.986 9.532 42.5 21.29 42.5 Z M 27.933 9.899 C 28.255 8.753 27.141 8.075 26.123 8.799 L 11.915 18.902 C 10.811 19.686 10.985 21.25 12.176 21.25 L 15.918 21.25 L 15.918 21.221 L 23.21 21.221 L 17.268 23.314 L 14.649 32.601 C 14.325 33.747 15.44 34.425 16.457 33.701 L 30.666 23.598 C 31.769 22.814 31.596 21.25 30.405 21.25 L 24.731 21.25 Z"
            fill="rgb(255,255,255)"></path>
        <path
            d="M 137.319 13.677 C 137.796 14.112 138.372 14.331 139.048 14.331 C 139.743 14.331 140.319 14.113 140.777 13.677 C 141.234 13.241 141.462 12.665 141.462 11.951 C 141.462 11.237 141.234 10.662 140.777 10.226 C 140.319 9.79 139.743 9.571 139.048 9.571 C 138.372 9.571 137.796 9.789 137.319 10.226 C 136.862 10.661 136.634 11.237 136.634 11.951 C 136.634 12.665 136.862 13.24 137.319 13.677 Z"
            fill="rgb(255,255,255)"></path>
        <path
            d="M 65.983 30.158 C 65.049 30.594 63.956 30.812 62.704 30.812 L 53.226 30.812 L 53.226 9.987 L 62.585 9.987 C 63.857 9.987 64.959 10.205 65.894 10.642 C 66.847 11.058 67.583 11.663 68.099 12.457 C 68.636 13.23 68.904 14.162 68.904 15.253 L 68.904 15.551 C 68.904 16.503 68.725 17.286 68.367 17.901 C 68.01 18.496 67.583 18.962 67.086 19.299 C 66.663 19.59 66.201 19.82 65.715 19.983 L 65.715 20.519 C 66.151 20.638 66.629 20.866 67.145 21.203 C 67.662 21.521 68.099 21.986 68.457 22.601 C 68.835 23.217 69.023 24.02 69.023 25.011 L 69.023 25.309 C 69.023 26.459 68.755 27.451 68.218 28.284 C 67.682 29.097 66.937 29.721 65.983 30.158 Z M 64.314 22.75 C 63.798 22.334 63.101 22.125 62.227 22.125 L 57.16 22.125 L 57.16 27.242 L 62.227 27.242 C 63.082 27.242 63.768 27.034 64.284 26.618 C 64.821 26.201 65.089 25.606 65.089 24.833 L 65.089 24.535 C 65.089 23.762 64.83 23.167 64.314 22.75 Z M 64.195 14.182 C 63.678 13.766 63.002 13.557 62.168 13.557 L 57.16 13.557 L 57.16 18.555 L 62.168 18.555 C 62.982 18.555 63.647 18.347 64.165 17.931 C 64.701 17.514 64.97 16.939 64.97 16.205 L 64.97 15.908 C 64.97 15.153 64.711 14.58 64.195 14.182 Z M 77.896 31.229 C 76.427 31.229 75.105 30.931 73.933 30.336 C 72.778 29.758 71.815 28.86 71.16 27.748 C 70.485 26.618 70.147 25.259 70.147 23.672 L 70.147 23.196 C 70.147 21.61 70.485 20.251 71.16 19.121 C 71.815 18.009 72.778 17.111 73.933 16.532 C 75.104 15.937 76.426 15.64 77.896 15.64 C 79.367 15.64 80.688 15.937 81.861 16.532 C 83.015 17.111 83.978 18.01 84.632 19.121 C 85.308 20.251 85.647 21.61 85.647 23.196 L 85.647 23.672 C 85.647 25.259 85.308 26.618 84.632 27.748 C 83.978 28.859 83.015 29.758 81.861 30.336 C 80.688 30.931 79.367 31.229 77.896 31.229 Z M 77.896 27.897 C 79.049 27.897 80.004 27.53 80.758 26.796 C 81.513 26.042 81.89 24.972 81.89 23.583 L 81.89 23.286 C 81.89 21.897 81.513 20.837 80.758 20.102 C 80.023 19.348 79.069 18.972 77.897 18.972 C 76.744 18.972 75.789 19.349 75.036 20.102 C 74.28 20.836 73.903 21.898 73.903 23.286 L 73.903 23.583 C 73.903 24.972 74.28 26.043 75.036 26.796 C 75.79 27.529 76.744 27.897 77.897 27.897 Z"
            fill="rgb(255,255,255)"></path>
        <path
            d="M 99.713 30.812 C 98.739 30.812 97.944 30.515 97.329 29.92 C 96.733 29.305 96.435 28.492 96.435 27.48 L 96.435 19.15 L 92.737 19.15 L 92.737 16.056 L 96.435 16.056 L 96.435 11.475 L 100.189 11.475 L 100.189 16.056 L 104.244 16.056 L 104.244 19.15 L 100.189 19.15 L 100.189 26.826 C 100.189 27.421 100.468 27.718 101.025 27.718 L 103.886 27.718 L 103.886 30.812 Z M 107.553 29.979 C 108.785 30.812 110.365 31.229 112.293 31.229 C 114.18 31.229 115.681 30.812 116.793 29.979 C 117.926 29.126 118.492 27.927 118.492 26.38 C 118.492 25.349 118.224 24.535 117.688 23.94 C 117.171 23.325 116.456 22.86 115.542 22.542 C 114.647 22.205 113.643 21.936 112.531 21.739 L 111.696 21.59 C 111.021 21.471 110.484 21.303 110.087 21.084 C 109.69 20.846 109.491 20.489 109.491 20.013 C 109.491 19.578 109.679 19.24 110.057 19.002 C 110.435 18.744 110.981 18.615 111.696 18.615 C 112.412 18.615 113.008 18.774 113.485 19.091 C 113.982 19.409 114.31 19.944 114.468 20.697 L 117.956 19.626 C 117.618 18.436 116.903 17.475 115.81 16.741 C 114.717 16.008 113.345 15.64 111.696 15.64 C 109.947 15.64 108.537 16.036 107.464 16.83 C 106.391 17.603 105.854 18.724 105.854 20.192 C 105.854 21.164 106.113 21.957 106.629 22.572 C 107.146 23.187 107.831 23.672 108.686 24.029 C 109.541 24.366 110.484 24.635 111.518 24.833 L 112.352 24.981 C 113.226 25.141 113.863 25.348 114.26 25.606 C 114.657 25.844 114.856 26.191 114.856 26.647 C 114.856 27.104 114.647 27.49 114.23 27.808 C 113.813 28.105 113.167 28.254 112.293 28.254 C 111.747 28.259 111.204 28.178 110.683 28.016 C 110.208 27.839 109.787 27.541 109.461 27.153 C 109.143 26.757 108.915 26.211 108.775 25.517 L 105.318 26.409 C 105.577 27.956 106.322 29.146 107.553 29.979 Z M 125.003 20.132 C 124.366 20.887 124.049 21.947 124.049 23.315 L 124.049 30.812 L 120.294 30.812 L 120.294 9.987 L 124.049 9.987 L 124.049 17.871 L 124.586 17.871 C 124.744 17.554 124.992 17.237 125.331 16.919 C 125.668 16.602 126.115 16.344 126.672 16.146 C 127.248 15.928 127.973 15.818 128.848 15.818 C 130 15.818 131.004 16.086 131.858 16.622 C 132.73 17.135 133.434 17.889 133.885 18.793 C 134.362 19.706 134.601 20.777 134.601 22.006 L 134.601 30.812 L 130.845 30.812 L 130.845 22.304 C 130.845 21.194 130.566 20.36 130.01 19.805 C 129.474 19.249 128.699 18.972 127.686 18.972 C 126.533 18.972 125.638 19.359 125.003 20.132 Z M 158.076 29.92 C 157.48 29.305 157.182 28.492 157.182 27.48 L 157.182 19.15 L 149.797 19.15 L 149.797 30.812 L 146.041 30.812 L 146.041 19.15 L 142.285 19.15 L 142.285 16.056 L 146.041 16.056 L 146.041 13.319 C 146.041 12.308 146.339 11.505 146.935 10.91 C 147.552 10.295 148.346 9.987 149.32 9.987 L 153.195 9.987 L 153.195 13.081 L 150.631 13.081 C 150.074 13.081 149.797 13.379 149.797 13.974 L 149.797 16.056 L 157.182 16.056 L 157.182 11.475 L 160.938 11.475 L 160.938 16.056 L 164.991 16.056 L 164.991 19.15 L 160.938 19.15 L 160.938 26.826 C 160.938 27.421 161.216 27.718 161.772 27.718 L 164.634 27.718 L 164.634 30.812 L 160.461 30.812 C 159.487 30.812 158.693 30.515 158.076 29.92 Z M 137.17 16.056 L 137.17 30.812 L 140.926 30.812 L 140.926 16.056 Z M 87.622 9.987 L 87.622 30.812 L 91.378 30.812 L 91.378 9.987 Z"
            fill="rgb(255,255,255)"></path>
    </g>
</svg>