<svg xmlns="http://www.w3.org/2000/svg" width="216" height="49" fill="none">
    <g transform="translate(0 4.083)">
        <g transform="translate(0 0)">
            <path
                d="M 4.351 25.115 C 4.793 25.555 5.041 26.156 5.041 26.782 C 5.041 27.408 4.793 28.008 4.351 28.449 L 4.305 28.497 C 3.383 29.417 1.895 29.417 0.973 28.497 C 0.532 28.056 0.283 27.456 0.283 26.83 C 0.283 26.204 0.532 25.603 0.973 25.163 L 1.02 25.115 C 1.942 24.194 3.429 24.194 4.351 25.115 Z"
                fill="rgb(255,255,255)" opacity="0.5"></path>
            <path
                d="M 15.425 25.825 C 15.866 26.267 16.113 26.867 16.112 27.493 C 16.111 28.119 15.861 28.719 15.419 29.159 L 8.894 35.666 C 7.973 36.585 6.481 36.583 5.563 35.66 C 5.122 35.218 4.875 34.618 4.876 33.991 C 4.877 33.365 5.127 32.766 5.569 32.326 L 12.094 25.819 C 13.016 24.9 14.507 24.903 15.425 25.825 Z"
                fill="rgb(255,255,255)" opacity="0.7"></path>
            <path
                d="M 24.28 37.026 C 25.006 35.942 26.464 35.65 27.546 36.372 L 27.688 36.466 C 28.208 36.811 28.569 37.35 28.691 37.964 C 28.814 38.578 28.688 39.216 28.341 39.736 C 27.616 40.82 26.157 41.112 25.075 40.389 L 24.933 40.295 C 24.414 39.951 24.053 39.412 23.931 38.798 C 23.808 38.184 23.934 37.547 24.28 37.027 Z"
                fill="rgb(255,255,255)" opacity="0.5"></path>
            <path
                d="M 39.826 24.974 C 40.268 25.415 40.516 26.015 40.516 26.641 C 40.516 27.267 40.268 27.867 39.826 28.308 L 36.621 31.513 C 35.703 32.434 34.211 32.434 33.291 31.513 C 32.371 30.592 32.371 29.1 33.291 28.18 L 36.495 24.974 C 37.417 24.053 38.904 24.053 39.826 24.974 Z"
                fill="rgb(255,255,255)" opacity="0.7"></path>
            <path
                d="M 39.874 13.115 C 40.315 13.556 40.564 14.156 40.564 14.782 C 40.564 15.408 40.315 16.008 39.874 16.449 L 16.2 40.142 C 15.28 41.063 13.788 41.063 12.869 40.142 C 11.949 39.221 11.949 37.729 12.869 36.808 L 36.542 13.115 C 37.464 12.194 38.952 12.194 39.874 13.115 Z M 35.396 5.83 C 35.838 6.271 36.086 6.871 36.086 7.497 C 36.086 8.123 35.838 8.723 35.396 9.164 L 21.781 22.791 C 20.862 23.712 19.37 23.712 18.45 22.791 C 17.53 21.87 17.53 20.378 18.45 19.457 L 32.065 5.829 C 32.987 4.908 34.474 4.908 35.396 5.829 Z M 28.211 1.209 C 28.652 1.649 28.901 2.249 28.902 2.875 C 28.902 3.501 28.654 4.102 28.213 4.543 L 10.711 22.083 C 9.789 23.004 8.302 23.005 7.379 22.085 C 6.938 21.644 6.689 21.044 6.688 20.418 C 6.688 19.792 6.936 19.192 7.377 18.751 L 24.879 1.211 C 25.801 0.289 27.288 0.288 28.211 1.209 Z"
                fill="rgb(255,255,255)"></path>
            <path
                d="M 10.879 6.823 C 11.32 7.265 11.567 7.866 11.566 8.492 C 11.565 9.118 11.315 9.717 10.873 10.157 L 4.018 16.995 C 3.097 17.914 1.605 17.911 0.687 16.989 C 0.247 16.547 -0.001 15.947 0 15.321 C 0.001 14.695 0.25 14.095 0.692 13.655 L 7.548 6.817 C 8.468 5.898 9.961 5.901 10.879 6.823 Z"
                fill="rgb(255,255,255)" opacity="0.7"></path>
            <path
                d="M 15.077 0 C 15.7 -0.002 16.299 0.246 16.74 0.688 C 17.182 1.13 17.431 1.731 17.433 2.358 L 17.433 2.593 C 17.433 3.896 16.378 4.951 15.077 4.951 C 14.454 4.953 13.856 4.706 13.414 4.263 C 12.972 3.821 12.723 3.22 12.722 2.593 L 12.722 2.358 C 12.722 1.056 13.776 0 15.077 0 Z"
                fill="rgb(255,255,255)" opacity="0.5"></path>
        </g>
        <path
            d="M 67.187 20.178 C 67.872 21.115 68.227 22.273 68.227 23.596 C 68.227 24.753 67.926 25.773 67.351 26.683 C 66.759 27.619 65.914 28.365 64.914 28.832 C 63.874 29.356 62.697 29.604 61.382 29.604 L 50.704 29.604 L 50.704 7.83 L 60.67 7.83 C 62.724 7.83 64.339 8.353 65.544 9.401 C 66.722 10.448 67.324 11.826 67.324 13.563 C 67.324 14.72 67.05 15.74 66.502 16.567 C 65.955 17.394 65.188 18 64.23 18.331 C 65.489 18.607 66.475 19.24 67.187 20.178 Z M 54.975 16.788 L 59.274 16.788 C 60.534 16.788 61.465 16.622 62.067 16.236 C 62.669 15.85 62.97 15.272 62.97 14.472 C 62.97 13.645 62.642 13.012 62.012 12.598 C 61.382 12.212 60.424 11.992 59.137 11.992 L 54.975 11.992 Z M 62.861 24.808 C 63.491 24.395 63.819 23.761 63.819 22.879 C 63.819 22.08 63.491 21.473 62.888 21.087 C 62.286 20.701 61.328 20.509 60.041 20.509 L 54.975 20.509 L 54.975 25.442 L 59.931 25.442 C 61.245 25.442 62.204 25.248 62.861 24.808 Z M 70.482 12.791 C 69.989 12.295 69.742 11.689 69.742 10.917 C 69.742 10.2 69.989 9.594 70.483 9.098 C 70.975 8.628 71.578 8.381 72.344 8.381 C 73.084 8.381 73.685 8.629 74.179 9.098 C 74.671 9.594 74.917 10.2 74.917 10.917 C 74.917 11.661 74.671 12.267 74.178 12.763 C 73.685 13.26 73.083 13.508 72.344 13.508 C 71.577 13.508 70.975 13.287 70.482 12.791 Z M 70.29 15.272 L 74.37 15.272 L 74.37 29.604 L 70.29 29.604 Z M 79.69 29.08 C 78.558 28.443 77.628 27.497 77.006 26.352 C 76.349 25.194 76.048 23.899 76.048 22.41 C 76.048 20.95 76.349 19.654 77.006 18.496 C 77.636 17.339 78.54 16.457 79.69 15.795 C 80.84 15.161 82.154 14.831 83.632 14.831 C 85.111 14.831 86.425 15.161 87.575 15.795 C 88.725 16.457 89.601 17.339 90.258 18.496 C 90.916 19.654 91.244 20.95 91.244 22.41 C 91.244 23.899 90.916 25.194 90.258 26.351 C 89.601 27.507 88.698 28.419 87.548 29.08 C 86.398 29.742 85.084 30.045 83.633 30.045 C 82.154 30.045 80.84 29.742 79.69 29.08 Z M 86.18 25.36 C 86.836 24.588 87.164 23.623 87.164 22.409 C 87.164 21.225 86.836 20.26 86.179 19.489 C 85.522 18.744 84.673 18.359 83.633 18.359 C 82.594 18.359 81.771 18.745 81.113 19.489 C 80.456 20.26 80.128 21.224 80.128 22.41 C 80.128 23.623 80.456 24.588 81.113 25.36 C 81.771 26.131 82.592 26.517 83.632 26.517 C 84.673 26.517 85.522 26.131 86.179 25.36 Z M 94.297 28.722 C 93.064 27.84 92.435 26.599 92.407 25.029 L 96.432 25.029 C 96.432 25.718 96.733 26.242 97.281 26.627 C 97.829 27.013 98.54 27.206 99.417 27.206 C 100.156 27.206 100.758 27.068 101.196 26.737 C 101.634 26.407 101.881 26.021 101.881 25.58 C 101.881 25.056 101.607 24.698 101.059 24.478 C 100.512 24.284 99.69 24.092 98.54 23.926 C 97.336 23.761 96.35 23.568 95.583 23.347 C 94.817 23.127 94.132 22.714 93.585 22.107 C 93.037 21.501 92.763 20.646 92.763 19.544 C 92.763 18.111 93.338 16.953 94.543 16.099 C 95.748 15.272 97.39 14.831 99.471 14.831 C 101.361 14.831 102.867 15.299 104.017 16.209 C 105.166 17.118 105.796 18.359 105.933 19.93 L 101.936 19.93 C 101.881 19.241 101.634 18.689 101.169 18.276 C 100.676 17.89 100.046 17.67 99.225 17.67 C 98.458 17.67 97.883 17.835 97.473 18.138 C 97.035 18.469 96.843 18.882 96.843 19.378 C 96.843 19.875 97.089 20.233 97.61 20.426 C 98.13 20.646 98.951 20.812 100.046 20.922 C 101.063 21.057 102.069 21.26 103.058 21.528 C 103.825 21.749 104.509 22.19 105.084 22.796 C 105.632 23.403 105.933 24.285 105.933 25.442 C 105.933 26.875 105.331 27.978 104.153 28.805 C 102.976 29.632 101.361 30.045 99.306 30.045 C 97.171 30.045 95.501 29.604 94.297 28.722 Z"
            fill="rgb(255,255,255)"></path>
        <path
            d="M 107.021 31.506 L 108.418 31.506 C 109.294 31.534 110.006 31.423 110.553 31.175 C 111.074 30.927 111.566 30.486 112.032 29.825 L 105.597 15.272 L 109.869 15.272 L 114.14 24.836 L 117.7 15.271 L 121.944 15.271 L 116.139 30.652 C 115.427 32.333 114.496 33.489 113.319 34.152 C 112.141 34.815 110.635 35.117 108.774 35.117 L 107.021 35.117 Z M 122.624 15.272 L 126.676 15.272 L 126.676 17.339 C 127.169 16.567 127.799 15.933 128.62 15.491 C 129.442 15.049 130.4 14.831 131.495 14.831 C 135 14.831 136.78 17.063 136.78 21.501 L 136.78 29.604 L 132.673 29.604 L 132.673 21.721 C 132.673 20.674 132.426 19.874 131.933 19.268 C 131.44 18.663 130.756 18.359 129.88 18.359 C 128.894 18.359 128.1 18.716 127.525 19.434 C 126.95 20.151 126.676 21.087 126.676 22.272 L 126.676 29.604 L 122.624 29.604 Z M 144.852 29.714 C 143.756 29.714 142.908 29.604 142.305 29.384 C 141.676 29.163 141.21 28.777 140.936 28.198 C 140.635 27.62 140.498 26.793 140.526 25.745 L 140.526 18.993 L 137.486 18.993 L 137.743 15.272 L 140.526 15.272 L 140.526 11.413 L 144.578 11.413 L 144.578 15.272 L 148.302 15.272 L 148.046 18.993 L 144.578 18.993 L 144.578 23.651 C 144.578 24.367 144.605 24.863 144.66 25.167 C 144.715 25.497 144.879 25.718 145.098 25.856 C 145.317 25.993 145.673 26.049 146.193 26.049 C 146.577 26.049 147.67 26.021 148.3 25.966 L 148.046 29.577 C 146.984 29.667 145.918 29.712 144.852 29.714 Z M 149.833 7.83 L 153.885 7.83 L 153.885 17.311 C 154.378 16.54 155.008 15.933 155.829 15.492 C 156.651 15.051 157.609 14.831 158.704 14.831 C 162.209 14.831 163.988 17.063 163.988 21.473 L 163.988 29.604 L 159.881 29.604 L 159.881 21.666 C 159.881 20.619 159.635 19.818 159.142 19.241 C 158.649 18.663 157.965 18.359 157.089 18.359 C 156.103 18.359 155.309 18.716 154.734 19.406 C 154.159 20.123 153.885 21.06 153.885 22.217 L 153.885 29.604 L 149.833 29.604 Z M 169.097 29.08 C 167.947 28.419 167.071 27.508 166.442 26.352 C 165.812 25.195 165.511 23.899 165.511 22.41 C 165.511 20.95 165.812 19.654 166.442 18.496 C 167.071 17.339 167.947 16.457 169.097 15.795 C 170.22 15.161 171.507 14.831 172.958 14.831 C 174.218 14.831 175.34 15.161 176.353 15.768 C 177.366 16.374 178.16 17.256 178.763 18.386 C 179.338 19.544 179.639 20.839 179.639 22.327 L 179.639 23.651 L 169.645 23.651 C 169.727 24.615 170.056 25.36 170.603 25.911 C 171.151 26.462 171.945 26.71 172.985 26.71 C 173.67 26.71 174.245 26.545 174.683 26.214 C 175.121 25.883 175.395 25.469 175.504 24.946 L 179.557 24.946 C 179.338 26.49 178.598 27.73 177.394 28.667 C 176.189 29.604 174.71 30.045 172.958 30.045 C 171.507 30.045 170.22 29.742 169.097 29.08 Z M 175.559 21.142 C 175.504 20.316 175.258 19.654 174.765 19.13 C 174.272 18.634 173.615 18.359 172.794 18.359 C 171.863 18.359 171.151 18.607 170.631 19.103 C 170.11 19.599 169.782 20.287 169.672 21.142 Z M 182.688 28.722 C 181.456 27.84 180.826 26.599 180.799 25.029 L 184.824 25.029 C 184.824 25.718 185.125 26.242 185.673 26.627 C 186.22 27.013 186.932 27.206 187.808 27.206 C 188.548 27.206 189.15 27.068 189.588 26.737 C 190.026 26.405 190.273 26.021 190.273 25.58 C 190.273 25.056 189.999 24.698 189.451 24.478 C 188.903 24.284 188.082 24.092 186.932 23.926 C 185.727 23.761 184.742 23.568 183.975 23.347 C 183.208 23.127 182.524 22.714 181.976 22.107 C 181.429 21.501 181.155 20.646 181.155 19.544 C 181.155 18.111 181.73 16.953 182.935 16.099 C 184.139 15.272 185.782 14.831 187.863 14.831 C 189.752 14.831 191.258 15.299 192.408 16.209 C 193.558 17.118 194.188 18.359 194.325 19.93 L 190.327 19.93 C 190.273 19.241 190.026 18.689 189.561 18.276 C 189.068 17.89 188.438 17.67 187.617 17.67 C 186.85 17.67 186.275 17.835 185.864 18.138 C 185.426 18.469 185.235 18.882 185.235 19.378 C 185.235 19.875 185.481 20.233 186.001 20.426 C 186.521 20.646 187.343 20.812 188.438 20.922 C 189.643 21.087 190.656 21.308 191.45 21.528 C 192.217 21.749 192.901 22.19 193.476 22.796 C 194.024 23.403 194.325 24.285 194.325 25.442 C 194.325 26.875 193.722 27.978 192.545 28.805 C 191.368 29.632 189.752 30.045 187.699 30.045 C 185.563 30.045 183.893 29.604 182.688 28.722 Z M 196.186 12.791 C 195.693 12.295 195.446 11.689 195.446 10.917 C 195.446 10.2 195.693 9.594 196.186 9.098 C 196.678 8.628 197.281 8.381 198.047 8.381 C 198.787 8.381 199.389 8.629 199.882 9.098 C 200.375 9.594 200.621 10.2 200.621 10.917 C 200.621 11.661 200.375 12.267 199.882 12.763 C 199.389 13.26 198.787 13.508 198.047 13.508 C 197.281 13.508 196.678 13.287 196.186 12.791 Z M 195.994 15.272 L 200.074 15.272 L 200.074 29.604 L 195.994 29.604 Z M 213.389 28.722 C 214.621 27.84 215.25 26.599 215.278 25.029 L 211.253 25.029 C 211.253 25.718 210.952 26.242 210.404 26.627 C 209.857 27.013 209.145 27.206 208.268 27.206 C 207.529 27.206 206.927 27.068 206.489 26.737 C 206.051 26.405 205.804 26.021 205.804 25.58 C 205.804 25.056 206.078 24.698 206.626 24.478 C 207.173 24.284 207.995 24.092 209.145 23.926 C 210.349 23.761 211.335 23.568 212.102 23.347 C 212.868 23.127 213.553 22.714 214.1 22.107 C 214.648 21.501 214.922 20.646 214.922 19.544 C 214.922 18.111 214.347 16.953 213.142 16.099 C 211.937 15.272 210.295 14.831 208.214 14.831 C 206.324 14.831 204.819 15.299 203.669 16.209 C 202.519 17.118 201.889 18.359 201.752 19.93 L 205.749 19.93 C 205.804 19.241 206.051 18.689 206.516 18.276 C 207.009 17.89 207.639 17.67 208.46 17.67 C 209.227 17.67 209.802 17.835 210.212 18.138 C 210.651 18.469 210.842 18.882 210.842 19.378 C 210.842 19.875 210.596 20.233 210.076 20.426 C 209.555 20.646 208.734 20.812 207.639 20.922 C 206.623 21.057 205.616 21.26 204.627 21.528 C 203.86 21.749 203.176 22.19 202.601 22.796 C 202.053 23.403 201.752 24.285 201.752 25.442 C 201.752 26.875 202.354 27.978 203.532 28.805 C 204.709 29.632 206.324 30.045 208.378 30.045 C 210.514 30.045 212.184 29.604 213.389 28.722 Z"
            fill="rgb(255,255,255)"></path>
    </g>
</svg>