<svg xmlns="http://www.w3.org/2000/svg" width="205" height="51" fill="none">
    <g transform="translate(0.779 4.25)">
        <g>
            <path d="M 36.988 10.625 L 36.988 19.178 L 26.343 19.178 L 26.343 16.741 Z"
                fill="rgb(255,255,255)"></path>
            <path d="M 36.985 10.625 L 26.34 16.742 L 18.492 12.233 L 18.492 0 Z"
                fill="rgb(255,255,255)" opacity="0.9"></path>
            <path d="M 18.494 0 L 18.494 12.233 L 10.647 16.742 L 0.002 10.625 Z"
                fill="rgb(255,255,255)" opacity="0.8"></path>
            <path d="M 10.645 16.742 L 10.645 25.758 L 0 31.875 L 0 10.625 Z"
                fill="rgb(255,255,255)" opacity="0.7"></path>
            <path d="M 18.493 30.267 L 18.493 42.5 L 0 31.875 L 10.645 25.758 Z"
                fill="rgb(255,255,255)" opacity="0.6"></path>
            <path d="M 36.985 31.875 L 18.492 42.5 L 18.492 30.267 L 26.34 25.758 Z"
                fill="rgb(255,255,255)" opacity="0.5"></path>
            <path d="M 36.988 23.322 L 36.988 31.875 L 26.343 25.758 L 26.343 23.323 Z"
                fill="rgb(255,255,255)" opacity="0.4"></path>
        </g>
        <path
            d="M 66.035 23.497 C 65.199 28.403 62.027 31.271 57.127 31.271 C 51.073 31.271 47.267 26.681 47.267 20.657 C 47.267 14.604 51.073 9.985 57.127 9.985 C 61.854 9.985 65.054 12.739 65.948 17.444 L 61.364 17.645 C 60.874 15.12 59.318 13.686 57.04 13.686 C 53.437 13.686 51.793 16.698 51.793 20.656 C 51.793 24.587 53.465 27.571 57.04 27.571 C 59.404 27.571 60.99 26.022 61.422 23.296 Z M 67.289 20.313 C 67.895 17.071 70.403 15.264 74.41 15.264 C 79.051 15.264 81.444 17.53 81.444 21.891 L 81.444 26.653 C 81.444 27.657 81.847 27.858 82.394 27.858 L 82.971 27.858 L 82.971 30.812 L 82.193 30.841 C 81.184 30.87 78.215 31.157 77.783 28.517 C 77.062 30.067 75.303 31.157 72.536 31.157 C 69.45 31.157 67.058 29.493 67.058 26.825 C 67.058 23.985 69.162 22.923 72.853 22.178 L 77.062 21.346 C 77.033 19.136 76.168 18.104 74.41 18.104 C 72.939 18.104 72.017 18.907 71.671 20.542 Z M 71.527 26.653 C 71.527 27.598 72.334 28.345 73.891 28.345 C 75.765 28.345 77.12 26.94 77.12 24.214 L 77.12 24.042 L 74.583 24.501 C 72.824 24.845 71.527 25.104 71.527 26.653 Z M 84.504 10.444 L 88.886 10.444 L 88.886 26.395 C 88.886 27.14 89.289 27.571 90.039 27.571 L 91.134 27.571 L 91.134 30.812 L 88.769 30.812 C 86.232 30.812 84.503 29.292 84.503 26.567 Z M 91.835 23.21 C 91.835 18.391 94.948 15.263 99.676 15.263 C 103.885 15.263 107.171 18.161 107.142 23.526 L 107.142 24.329 L 96.391 24.329 C 96.505 26.595 97.716 27.944 99.676 27.944 C 100.944 27.944 102.069 27.227 102.559 26.05 L 106.941 26.366 C 106.018 29.32 103.164 31.157 99.676 31.157 C 94.948 31.157 91.835 28.03 91.835 23.209 Z M 96.418 21.719 L 102.732 21.719 C 102.501 19.424 101.175 18.477 99.676 18.477 C 97.831 18.477 96.649 19.709 96.419 21.718 Z M 118.137 20.542 C 117.906 19.137 116.695 18.276 115.369 18.276 C 114.072 18.276 113.063 18.965 113.12 20.055 C 113.178 21.174 114.475 21.661 115.917 21.891 C 120.414 22.608 122.634 23.784 122.634 26.653 C 122.634 29.694 119.751 31.157 115.83 31.157 C 111.362 31.157 108.508 29.234 108.277 25.993 L 112.659 25.764 C 112.919 27.227 113.985 28.116 115.744 28.116 C 116.839 28.116 118.165 27.657 118.165 26.567 C 118.137 25.276 116.666 25.046 115.196 24.731 C 110.987 23.928 108.623 22.895 108.623 20.083 C 108.623 17.043 111.189 15.235 115.542 15.235 C 119.405 15.235 122 17.186 122.518 20.37 Z M 134.602 21.431 C 134.342 19.596 133.131 18.592 131.604 18.592 C 129.441 18.592 128.231 20.284 128.231 23.21 C 128.231 26.136 129.441 27.829 131.604 27.829 C 133.218 27.829 134.4 26.825 134.659 24.845 L 139.157 25.018 C 138.753 28.804 135.668 31.157 131.604 31.157 C 126.876 31.157 123.762 28.03 123.762 23.209 C 123.762 18.389 126.876 15.264 131.604 15.264 C 135.553 15.264 138.666 17.53 139.07 21.231 Z M 139.951 23.21 C 139.951 18.391 143.064 15.263 147.792 15.263 C 152.001 15.263 155.287 18.161 155.259 23.526 L 155.259 24.329 L 144.506 24.329 C 144.621 26.595 145.832 27.944 147.792 27.944 C 149.061 27.944 150.185 27.227 150.675 26.05 L 155.057 26.366 C 154.134 29.32 151.28 31.157 147.792 31.157 C 143.064 31.157 139.951 28.03 139.951 23.209 Z M 144.535 21.719 L 150.848 21.719 C 150.617 19.424 149.291 18.477 147.792 18.477 C 145.947 18.477 144.765 19.709 144.535 21.718 Z M 156.889 15.608 L 160.81 15.608 L 160.925 18.047 C 161.761 16.038 163.462 15.263 165.48 15.263 C 168.824 15.263 170.755 17.501 170.755 21.03 L 170.755 30.812 L 166.402 30.812 L 166.402 22.464 C 166.402 20.055 165.855 18.706 164.067 18.706 C 162.222 18.706 161.271 20.055 161.271 22.464 L 161.271 30.812 L 156.889 30.812 Z M 183.083 21.431 C 182.824 19.596 181.613 18.592 180.085 18.592 C 177.923 18.592 176.712 20.284 176.712 23.21 C 176.712 26.136 177.923 27.829 180.085 27.829 C 181.699 27.829 182.881 26.825 183.141 24.845 L 187.638 25.018 C 187.234 28.804 184.15 31.157 180.085 31.157 C 175.357 31.157 172.244 28.03 172.244 23.209 C 172.244 18.389 175.357 15.264 180.085 15.264 C 184.034 15.264 187.148 17.53 187.552 21.231 Z M 188.432 23.21 C 188.432 18.391 191.546 15.263 196.274 15.263 C 200.483 15.263 203.769 18.161 203.74 23.526 L 203.74 24.329 L 192.987 24.329 C 193.103 26.595 194.313 27.944 196.274 27.944 C 197.542 27.944 198.666 27.227 199.156 26.05 L 203.538 26.366 C 202.616 29.32 199.762 31.157 196.274 31.157 C 191.546 31.157 188.432 28.03 188.432 23.209 Z M 193.016 21.719 L 199.329 21.719 C 199.099 19.424 197.773 18.477 196.274 18.477 C 194.429 18.477 193.247 19.709 193.016 21.718 Z"
            fill="rgb(255,255,255)"></path>
    </g>
</svg>