<svg xmlns="http://www.w3.org/2000/svg" width="73" height="30" fill="none">
    <path
        d="M 0 15 C 0 6.716 6.716 0 15 0 C 23.284 0 30 6.716 30 15 C 30 23.284 23.284 30 15 30 C 6.716 30 0 23.284 0 15 Z"
        fill="rgb(131, 0, 0)"></path>
    <path
        d="M 55.118 25.459 L 55.118 4 L 47.477 4 C 47.285 4 47.069 4.01 46.831 4.03 C 46.584 4.04 46.336 4.07 46.089 4.119 C 45.054 4.288 44.179 4.681 43.464 5.296 C 42.741 5.902 42.195 6.667 41.829 7.591 C 41.453 8.515 41.266 9.539 41.266 10.661 C 41.266 12.28 41.659 13.686 42.447 14.878 C 43.022 15.748 43.777 16.382 44.713 16.782 L 40.812 25.459 L 43.134 25.459 L 46.778 17.307 L 53.098 17.307 L 53.098 25.459 Z M 53.098 15.221 L 47.532 15.221 C 47.367 15.221 47.175 15.211 46.955 15.191 C 46.735 15.171 46.52 15.137 46.309 15.087 C 45.631 14.928 45.077 14.625 44.646 14.178 C 44.206 13.731 43.881 13.199 43.671 12.583 C 43.451 11.968 43.341 11.327 43.341 10.661 C 43.341 9.995 43.451 9.355 43.671 8.739 C 43.881 8.113 44.206 7.576 44.646 7.129 C 45.077 6.682 45.631 6.379 46.309 6.22 C 46.52 6.171 46.735 6.141 46.955 6.131 C 47.175 6.111 47.367 6.101 47.532 6.101 L 53.098 6.101 Z M 31.485 25.888 C 29.434 25.888 27.703 25.435 26.292 24.529 C 24.88 23.613 23.812 22.349 23.087 20.738 C 22.362 19.126 22 17.266 22 15.158 C 22 13.051 22.362 11.191 23.087 9.579 C 23.812 7.967 24.88 6.709 26.292 5.803 C 27.703 4.887 29.434 4.429 31.485 4.429 C 33.879 4.429 35.834 5.044 37.35 6.275 C 38.867 7.495 39.906 9.136 40.469 11.196 L 38.323 11.754 C 37.884 10.123 37.097 8.831 35.962 7.877 C 34.828 6.923 33.335 6.446 31.485 6.446 C 29.873 6.446 28.533 6.813 27.465 7.548 C 26.397 8.282 25.591 9.307 25.047 10.624 C 24.513 11.93 24.236 13.442 24.217 15.158 C 24.208 16.875 24.47 18.387 25.004 19.693 C 25.548 21 26.358 22.025 27.436 22.769 C 28.523 23.503 29.873 23.871 31.485 23.871 C 33.335 23.871 34.828 23.394 35.962 22.44 C 37.097 21.477 37.884 20.185 38.323 18.563 L 40.469 19.121 C 39.906 21.181 38.867 22.826 37.35 24.057 C 35.834 25.277 33.879 25.888 31.485 25.888 Z M 56.906 4 L 56.906 25.459 L 59.093 25.459 L 59.093 7.86 L 70.813 25.459 L 73 25.459 L 73 4 L 70.813 4 L 70.813 21.584 L 59.093 4 Z"
        fill="rgb(0, 0, 0)"></path>
</svg>