<svg width="150" height="43" viewBox="0 0 150 43" fill="none" xmlns="http://www.w3.org/2000/svg">
<g clip-path="url(#clip0_2_414)">
<g clip-path="url(#clip1_2_414)">
<g clip-path="url(#clip2_2_414)">
<path fill-rule="evenodd" clip-rule="evenodd" d="M18.3353 6.26955L18.3265 36.7511L21.5809 36.7421L21.5719 26.1022L27.3211 26.0931L27.312 36.7421H30.7184V-4.60693L27.3029 -2.34227L27.2987 22.8781L21.6077 22.8592L21.6122 0.653805L0 13.1554L0.0290845 30.2919L3.44454 30.3012L3.44896 15.0514L18.3353 6.26955Z" fill="white"/>
<path fill-rule="evenodd" clip-rule="evenodd" d="M12.4253 36.5995V13.4434L9.0642 15.4133L9.13515 33.4548L0.0515177 33.3835L0.0066185 36.5813L12.4253 36.5995Z" fill="white"/>
<path d="M54.2941 19.4542V8.2548H57.0439V19.4542C57.0439 20.5165 56.8166 21.4215 56.362 22.1688C55.9073 22.9162 55.2877 23.4877 54.5031 23.8834C53.7184 24.279 52.8275 24.4768 51.8302 24.4768C50.8109 24.4768 49.9053 24.3046 49.1134 23.9602C48.3287 23.6159 47.7128 23.0884 47.2654 22.3777C46.8181 21.6669 46.5945 20.7657 46.5945 19.674H49.3663C49.3663 20.3041 49.4653 20.8133 49.6633 21.2017C49.8687 21.5827 50.1547 21.8611 50.5213 22.0369C50.8953 22.2055 51.3316 22.2897 51.8302 22.2897C52.3069 22.2897 52.7285 22.1835 53.0952 21.971C53.4691 21.7512 53.7625 21.4324 53.9751 21.0148C54.1878 20.5898 54.2941 20.0696 54.2941 19.4542Z" fill="white"/>
<path d="M67.1194 21.4544V12.3652H69.7813V24.257H67.2734L67.1194 21.4544ZM67.4934 18.9816L68.3843 18.9596C68.3843 19.7582 68.2963 20.4946 68.1204 21.1687C67.9444 21.8354 67.673 22.418 67.3064 22.9162C66.9397 23.4071 66.4705 23.7918 65.8984 24.0702C65.3265 24.3413 64.6408 24.4768 63.8416 24.4768C63.2623 24.4768 62.7307 24.3925 62.2467 24.224C61.7627 24.0555 61.3447 23.7954 60.9928 23.4437C60.6481 23.0921 60.3805 22.6341 60.1898 22.0699C59.9991 21.5057 59.9038 20.8316 59.9038 20.0477V12.3652H62.5546V20.0696C62.5546 20.5019 62.606 20.8646 62.7086 21.1577C62.8113 21.4435 62.9506 21.6742 63.1266 21.8501C63.3026 22.0259 63.508 22.1505 63.7426 22.2238C63.9772 22.297 64.2265 22.3336 64.4905 22.3336C65.2459 22.3336 65.8398 22.1872 66.2725 21.8941C66.7124 21.5936 67.0241 21.1907 67.2074 20.6851C67.3981 20.1796 67.4934 19.6117 67.4934 18.9816Z" fill="white"/>
<path d="M79.1745 21.0368C79.1745 20.773 79.1085 20.5349 78.9765 20.3224C78.8445 20.1026 78.5918 19.9048 78.2175 19.7289C77.8515 19.5531 77.3085 19.3918 76.59 19.2454C75.9593 19.1061 75.3802 18.9412 74.852 18.7507C74.3314 18.553 73.8841 18.3148 73.51 18.0364C73.1361 17.758 72.8464 17.4283 72.6411 17.0473C72.4358 16.6662 72.3331 16.2266 72.3331 15.7284C72.3331 15.2448 72.4395 14.7868 72.6521 14.3545C72.8647 13.9222 73.1691 13.5412 73.5651 13.2115C73.961 12.8818 74.4413 12.6218 75.006 12.4313C75.5783 12.2407 76.2157 12.1454 76.92 12.1454C77.9175 12.1454 78.7717 12.3139 79.4827 12.651C80.2012 12.9808 80.751 13.4314 81.1328 14.0029C81.5138 14.567 81.705 15.2045 81.705 15.9152H79.0537C79.0537 15.6002 78.9728 15.307 78.8115 15.036C78.6578 14.7575 78.423 14.5341 78.108 14.3656C77.7922 14.1897 77.3962 14.1018 76.92 14.1018C76.4655 14.1018 76.0875 14.1751 75.7868 14.3215C75.4935 14.4608 75.2737 14.644 75.1267 14.8711C74.9877 15.0982 74.918 15.3474 74.918 15.6184C74.918 15.8163 74.9547 15.9958 75.0278 16.157C75.1088 16.3108 75.2408 16.4537 75.4238 16.5856C75.6075 16.7102 75.8565 16.8274 76.1723 16.9373C76.4948 17.0473 76.8983 17.1535 77.382 17.2561C78.291 17.4466 79.0718 17.692 79.725 17.9924C80.385 18.2855 80.8905 18.6665 81.243 19.1354C81.5947 19.5971 81.771 20.1832 81.771 20.8939C81.771 21.4215 81.657 21.905 81.4297 22.3447C81.21 22.777 80.8867 23.1543 80.4615 23.4767C80.0362 23.7917 79.527 24.0372 78.933 24.2131C78.3465 24.3889 77.6865 24.4768 76.953 24.4768C75.8752 24.4768 74.962 24.2863 74.2141 23.9053C73.4661 23.517 72.8978 23.0224 72.5091 22.4216C72.1278 21.8134 71.9371 21.1834 71.9371 20.5312H74.5C74.5294 21.0221 74.665 21.4142 74.907 21.7073C75.156 21.993 75.4643 22.2018 75.831 22.3336C76.2053 22.4582 76.59 22.5205 76.986 22.5205C77.4623 22.5205 77.862 22.4582 78.1845 22.3336C78.5078 22.2018 78.753 22.0259 78.9217 21.8062C79.0905 21.579 79.1745 21.3226 79.1745 21.0368Z" fill="white"/>
<path d="M89.547 12.3652V14.2996H82.8375V12.3652H89.547ZM84.7732 9.45277H87.4245V20.9708C87.4245 21.3372 87.4755 21.6193 87.5782 21.8171C87.6885 22.0076 87.8385 22.1359 88.029 22.2018C88.2202 22.2677 88.4437 22.3007 88.7002 22.3007C88.8832 22.3007 89.0595 22.2897 89.2282 22.2677C89.397 22.2457 89.5327 22.2238 89.6355 22.2018L89.646 24.224C89.4262 24.29 89.1697 24.3486 88.8765 24.3999C88.59 24.4512 88.26 24.4768 87.8865 24.4768C87.2775 24.4768 86.739 24.3706 86.2695 24.1581C85.8 23.9383 85.4332 23.5829 85.1692 23.092C84.9052 22.6011 84.7732 21.949 84.7732 21.1357V9.45277Z" fill="white"/>
<path d="M102.439 14.9371V17.1241H93.936V14.9371H102.439ZM94.6177 8.2548V24.257H91.857V8.2548H94.6177ZM104.561 8.2548V24.257H101.812V8.2548H104.561Z" fill="white"/>
<path d="M107.081 18.443V18.1903C107.081 17.333 107.205 16.538 107.454 15.8053C107.704 15.0652 108.063 14.4241 108.533 13.882C109.009 13.3324 109.588 12.9075 110.27 12.607C110.959 12.2993 111.737 12.1454 112.602 12.1454C113.474 12.1454 114.252 12.2993 114.934 12.607C115.623 12.9075 116.207 13.3324 116.683 13.882C117.16 14.4241 117.523 15.0652 117.772 15.8053C118.021 16.538 118.146 17.333 118.146 18.1903V18.443C118.146 19.3003 118.021 20.0953 117.772 20.8279C117.523 21.5607 117.16 22.2018 116.683 22.7513C116.207 23.2935 115.627 23.7185 114.945 24.0262C114.263 24.3266 113.489 24.4768 112.624 24.4768C111.751 24.4768 110.971 24.3266 110.281 24.0262C109.599 23.7185 109.02 23.2935 108.543 22.7513C108.067 22.2018 107.704 21.5607 107.454 20.8279C107.205 20.0953 107.081 19.3003 107.081 18.443ZM109.731 18.1903V18.443C109.731 18.9779 109.787 19.4835 109.896 19.9597C110.006 20.436 110.179 20.8536 110.413 21.2126C110.648 21.5717 110.948 21.8538 111.315 22.0589C111.682 22.264 112.118 22.3666 112.624 22.3666C113.115 22.3666 113.54 22.264 113.9 22.0589C114.266 21.8538 114.567 21.5717 114.802 21.2126C115.037 20.8536 115.209 20.436 115.319 19.9597C115.436 19.4835 115.495 18.9779 115.495 18.443V18.1903C115.495 17.6627 115.436 17.1645 115.319 16.6955C115.209 16.2193 115.033 15.798 114.791 15.4316C114.556 15.0652 114.256 14.7795 113.889 14.5744C113.53 14.3619 113.101 14.2556 112.602 14.2556C112.103 14.2556 111.671 14.3619 111.304 14.5744C110.945 14.7795 110.648 15.0652 110.413 15.4316C110.179 15.798 110.006 16.2193 109.896 16.6955C109.787 17.1645 109.731 17.6627 109.731 18.1903Z" fill="white"/>
<path d="M123.019 14.7832V24.257H120.368V12.3652H122.864L123.019 14.7832ZM122.59 17.8715L121.688 17.8606C121.688 17.0399 121.79 16.2816 121.996 15.5855C122.201 14.8895 122.501 14.2849 122.897 13.772C123.293 13.2518 123.785 12.8525 124.371 12.5741C124.965 12.2884 125.651 12.1454 126.428 12.1454C126.971 12.1454 127.465 12.226 127.913 12.3872C128.368 12.5411 128.76 12.7866 129.09 13.1236C129.427 13.4606 129.684 13.8929 129.86 14.4205C130.043 14.948 130.135 15.5855 130.135 16.3328V24.257H127.484V16.5637C127.484 15.9848 127.397 15.5305 127.22 15.2008C127.052 14.8711 126.806 14.6366 126.483 14.4974C126.168 14.3509 125.79 14.2776 125.351 14.2776C124.852 14.2776 124.427 14.3729 124.075 14.5634C123.73 14.7539 123.448 15.014 123.227 15.3437C123.007 15.6734 122.846 16.0544 122.744 16.4867C122.641 16.919 122.59 17.3806 122.59 17.8715ZM129.97 17.1681L128.727 17.4429C128.727 16.7248 128.826 16.0471 129.024 15.4096C129.23 14.7649 129.527 14.2007 129.915 13.7171C130.311 13.2262 130.799 12.8415 131.378 12.5631C131.957 12.2847 132.621 12.1454 133.369 12.1454C133.978 12.1454 134.52 12.2297 134.997 12.3982C135.481 12.5594 135.892 12.8159 136.229 13.1676C136.566 13.5193 136.822 13.9772 136.999 14.5414C137.175 15.0982 137.263 15.7723 137.263 16.5637V24.257H134.601V16.5526C134.601 15.9518 134.513 15.4866 134.337 15.1569C134.168 14.8271 133.926 14.6 133.611 14.4754C133.295 14.3436 132.918 14.2776 132.478 14.2776C132.067 14.2776 131.705 14.3546 131.389 14.5085C131.081 14.655 130.821 14.8638 130.608 15.1348C130.396 15.3986 130.234 15.7027 130.124 16.0471C130.021 16.3915 129.97 16.7651 129.97 17.1681Z" fill="white"/>
<path d="M145.237 24.4768C144.357 24.4768 143.562 24.334 142.85 24.0482C142.147 23.7551 141.545 23.3485 141.046 22.8283C140.555 22.3081 140.177 21.6962 139.913 20.9929C139.649 20.2895 139.517 19.5311 139.517 18.7178V18.2782C139.517 17.3476 139.653 16.505 139.924 15.7504C140.196 14.9956 140.573 14.3509 141.058 13.816C141.541 13.2738 142.114 12.8599 142.774 12.5741C143.433 12.2884 144.148 12.1454 144.918 12.1454C145.769 12.1454 146.513 12.2884 147.151 12.5741C147.789 12.8599 148.317 13.2628 148.735 13.783C149.16 14.296 149.476 14.9077 149.681 15.6184C149.893 16.3292 150 17.1132 150 17.9704V19.1025H140.804V17.2011H147.382V16.9923C147.367 16.516 147.272 16.0691 147.096 15.6515C146.927 15.2338 146.667 14.8967 146.315 14.6403C145.964 14.3839 145.494 14.2556 144.908 14.2556C144.467 14.2556 144.075 14.3509 143.73 14.5414C143.393 14.7246 143.11 14.992 142.883 15.3437C142.656 15.6954 142.48 16.1203 142.355 16.6186C142.238 17.1095 142.18 17.6627 142.18 18.2782V18.7178C142.18 19.238 142.249 19.7216 142.388 20.1685C142.535 20.6082 142.747 20.9929 143.026 21.3226C143.305 21.6523 143.642 21.9124 144.038 22.1029C144.434 22.286 144.885 22.3777 145.391 22.3777C146.029 22.3777 146.597 22.2494 147.096 21.993C147.595 21.7365 148.027 21.3739 148.394 20.9049L149.791 22.2568C149.534 22.6304 149.2 22.9895 148.79 23.3339C148.379 23.6709 147.877 23.9456 147.284 24.1581C146.696 24.3706 146.014 24.4768 145.237 24.4768Z" fill="white"/>
</g>
</g>
</g>
<defs>
<clipPath id="clip0_2_414">
<rect width="150" height="42" fill="white" transform="translate(0 0.75)"/>
</clipPath>
<clipPath id="clip1_2_414">
<rect width="150" height="42" fill="white" transform="translate(0 -5.25)"/>
</clipPath>
<clipPath id="clip2_2_414">
<rect width="150" height="42" fill="white" transform="translate(0 -5.25)"/>
</clipPath>
</defs>
</svg>
