<svg xmlns="http://www.w3.org/2000/svg" width="56" height="21" fill="none"><path d="M 0.002 20 L 0.002 0.63 L 7.048 0.63 C 8.348 0.63 9.492 0.873 10.48 1.358 C 11.443 1.803 12.249 2.528 12.794 3.438 C 13.366 4.339 13.652 5.423 13.652 6.688 C 13.652 8.023 13.314 9.167 12.638 10.12 C 11.979 11.073 11.087 11.767 9.96 12.2 L 14.432 20 L 10.948 20 L 6.19 11.55 L 8.192 12.72 L 3.07 12.72 L 3.07 20 Z M 3.07 9.99 L 7.1 9.99 C 7.81 9.99 8.426 9.851 8.946 9.574 C 9.446 9.316 9.862 8.918 10.142 8.43 C 10.437 7.927 10.584 7.338 10.584 6.662 C 10.584 5.986 10.437 5.405 10.142 4.92 C 9.872 4.424 9.454 4.024 8.946 3.776 C 8.426 3.499 7.811 3.36 7.1 3.36 L 3.07 3.36 Z M 22.545 20.312 C 21.141 20.312 19.893 19.992 18.801 19.35 C 17.74 18.706 16.869 17.79 16.279 16.698 C 15.672 15.571 15.369 14.315 15.369 12.928 C 15.369 11.507 15.672 10.25 16.279 9.158 C 16.873 8.097 17.733 7.21 18.775 6.584 C 19.815 5.943 20.993 5.622 22.311 5.622 C 23.368 5.622 24.313 5.804 25.145 6.168 C 25.948 6.511 26.667 7.026 27.251 7.676 C 27.824 8.301 28.266 9.035 28.551 9.834 C 28.863 10.649 29.019 11.515 29.019 12.434 C 29.019 12.659 29.009 12.894 28.993 13.136 C 28.978 13.364 28.943 13.59 28.889 13.812 L 17.683 13.812 L 17.683 11.472 L 27.225 11.472 L 25.821 12.538 C 25.994 11.688 25.933 10.935 25.639 10.276 C 25.382 9.625 24.927 9.07 24.339 8.69 C 23.767 8.291 23.091 8.092 22.311 8.092 C 21.531 8.092 20.837 8.292 20.231 8.69 C 19.624 9.071 19.156 9.626 18.827 10.354 C 18.497 11.064 18.367 11.931 18.437 12.954 C 18.35 13.907 18.48 14.739 18.827 15.45 C 19.166 16.133 19.688 16.709 20.335 17.114 C 20.993 17.513 21.739 17.712 22.571 17.712 C 23.42 17.712 24.139 17.522 24.729 17.14 C 25.322 16.773 25.813 16.264 26.159 15.658 L 28.551 16.828 C 28.273 17.487 27.84 18.085 27.251 18.622 C 26.679 19.142 25.985 19.558 25.171 19.87 C 24.373 20.165 23.498 20.312 22.545 20.312 Z M 33.472 20 L 33.472 8.586 L 30.872 8.586 L 30.872 5.934 L 33.472 5.934 L 33.472 5.206 C 33.472 4.149 33.689 3.265 34.122 2.554 C 34.545 1.836 35.168 1.258 35.916 0.89 C 36.696 0.509 37.589 0.318 38.594 0.318 C 38.784 0.318 39.001 0.335 39.244 0.37 C 39.487 0.387 39.686 0.413 39.842 0.448 L 39.842 2.996 C 39.689 2.96 39.532 2.942 39.374 2.944 C 39.236 2.929 39.097 2.92 38.958 2.918 C 38.178 2.918 37.554 3.1 37.086 3.464 C 36.618 3.811 36.384 4.391 36.384 5.206 L 36.384 5.934 L 43.118 5.934 L 43.118 8.586 L 36.384 8.586 L 36.384 20 Z M 41.74 20 L 41.74 5.934 L 44.652 5.934 L 44.652 20 Z M 53.84 20.156 C 52.366 20.156 51.222 19.74 50.407 18.908 C 49.592 18.076 49.185 16.906 49.185 15.398 L 49.185 8.586 L 46.715 8.586 L 46.715 5.934 L 47.105 5.934 C 47.764 5.934 48.275 5.744 48.639 5.362 C 49.003 4.981 49.185 4.461 49.185 3.802 L 49.185 2.71 L 52.123 2.71 L 52.123 5.934 L 55.321 5.934 L 55.321 8.586 L 52.123 8.586 L 52.123 15.268 C 52.123 15.753 52.201 16.169 52.357 16.516 C 52.513 16.846 52.764 17.106 53.111 17.296 C 53.458 17.469 53.908 17.556 54.463 17.556 C 54.602 17.556 54.758 17.547 54.931 17.53 C 55.104 17.513 55.269 17.495 55.425 17.478 L 55.425 20 C 55.182 20.035 54.914 20.07 54.619 20.104 C 54.36 20.136 54.1 20.154 53.839 20.156 Z" fill="rgb(255,255,255)"></path></svg>